<svg viewBox="0 0 407 407" fill="none" xmlns="http://www.w3.org/2000/svg"><path fill-rule="evenodd" clip-rule="evenodd" d="M0 200C0 89.543 89.543 0 200 0h6.649c110.457 0 200 89.543 200 200v206.649H200c-110.457 0-200-89.543-200-200V200zm162.064 107.163c0-22.649 41.004-82.009 41.004-82.009s41.004 59.36 41.004 82.009c0 22.648-18.362 41.004-41.004 41.004s-41.004-18.356-41.004-41.004zm41.004-125.942s-41.004-59.36-41.004-82.009c0-22.648 18.362-41.004 41.004-41.004s41.004 18.356 41.004 41.004c0 22.649-41.004 82.009-41.004 82.009zm67.13 109.463c-19.614-11.324-50.519-76.514-50.519-76.514s71.909-5.831 91.523 5.493c19.614 11.324 26.33 36.404 15.009 56.013-11.321 19.608-36.399 26.333-56.013 15.008zm-83.742-95.186s-71.91 5.831-91.524-5.494c-19.614-11.324-26.33-36.404-15.008-56.012 11.32-19.609 36.398-26.333 56.012-15.009 19.614 11.324 50.52 76.515 50.52 76.515zm125.667-6.397c-19.614 11.324-91.524 5.494-91.524 5.494s30.905-65.191 50.52-76.515c19.614-11.324 44.691-4.6 56.012 15.008 11.321 19.609 4.606 44.689-15.008 56.013zm-124.748 24.165s-30.905 65.191-50.519 76.515c-19.614 11.324-44.692 4.6-56.013-15.008-11.32-19.609-4.605-44.689 15.009-56.013 19.614-11.324 91.523-5.494 91.523-5.494z" fill="#868787"/></svg>