<svg width="383" height="614" viewBox="0 0 383 614" fill="none" xmlns="http://www.w3.org/2000/svg">
<path d="M382.193 342.668L146.019 380.696L145.018 151.095L381.192 0L382.193 342.668Z" fill="#E6E6E6"/>
<path d="M360.176 308.643L156.026 352.675V160.534L360.176 49.73V308.643Z" fill="white"/>
<path d="M340.162 132.514L168.035 209.595V182.55L340.162 97.517V132.514Z" fill="#747B81"/>
<path d="M340.162 204.567L168.035 265.277V238.592L340.162 170.035V204.567Z" fill="#0DE5A8"/>
<path d="M234.536 171.132C234.57 170.995 234.647 170.873 234.757 170.785C234.866 170.696 235.001 170.646 235.142 170.641C235.282 170.637 235.42 170.678 235.535 170.759C235.65 170.84 235.735 170.957 235.778 171.091L238.565 179.874L241.903 190.397C241.952 190.551 241.941 190.717 241.874 190.863C241.806 191.01 241.685 191.125 241.537 191.187L235.084 193.876L229.414 196.239C229.304 196.285 229.183 196.299 229.065 196.28C228.947 196.262 228.837 196.211 228.746 196.133C228.655 196.055 228.588 195.954 228.552 195.84C228.515 195.727 228.511 195.605 228.539 195.489L231.641 182.892L234.536 171.132Z" fill="#E6E6E6"/>
<path d="M224.185 236.623C224.24 236.398 224.368 236.197 224.548 236.051C224.728 235.905 224.951 235.821 225.183 235.814C225.415 235.806 225.643 235.875 225.833 236.008C226.022 236.142 226.163 236.335 226.233 236.556L228.569 243.918L231.792 254.075C231.872 254.328 231.855 254.603 231.742 254.845C231.63 255.086 231.432 255.277 231.186 255.379L225.089 257.92L220.186 259.963C220.004 260.039 219.805 260.063 219.61 260.032C219.415 260.001 219.233 259.917 219.083 259.789C218.934 259.66 218.823 259.493 218.763 259.305C218.702 259.118 218.696 258.917 218.743 258.726L221.646 246.936L224.185 236.623Z" fill="#E6E6E6"/>
<path d="M340.162 276.62L168.035 320.959V292.631L340.162 239.964V276.62Z" fill="#F2F2F2"/>
<path d="M336.159 151.982C336.159 158.009 333.459 164.001 330.154 165.356C326.879 166.698 324.245 162.969 324.245 157.038C324.245 151.106 326.879 145.141 330.154 143.704C333.459 142.254 336.159 145.955 336.159 151.982Z" fill="#747B81"/>
<path d="M332.156 153.681C332.156 155.69 331.258 157.695 330.154 158.158C329.053 158.62 328.163 157.373 328.163 155.375C328.163 153.376 329.053 151.374 330.154 150.902C331.258 150.428 332.156 151.672 332.156 153.681Z" fill="white"/>
<path d="M336.159 222.033C336.159 228.06 333.459 234.053 330.154 235.407C326.879 236.75 324.245 233.021 324.245 227.089C324.245 221.158 326.879 215.193 330.154 213.756C333.459 212.305 336.159 216.006 336.159 222.033Z" fill="#0DE5A8"/>
<path d="M332.156 223.732C332.156 225.741 331.258 227.746 330.154 228.209C329.053 228.671 328.163 227.424 328.163 225.426C328.163 223.428 329.053 221.426 330.154 220.953C331.258 220.48 332.156 221.723 332.156 223.732Z" fill="white"/>
<path d="M336.159 292.085C336.159 298.112 333.459 304.104 330.154 305.459C326.879 306.801 324.245 303.072 324.245 297.141C324.245 291.209 326.879 285.244 330.154 283.807C333.459 282.357 336.159 286.058 336.159 292.085Z" fill="#F2F2F2"/>
<path d="M332.156 293.783C332.156 295.792 331.258 297.798 330.154 298.261C329.053 298.722 328.163 297.476 328.163 295.478C328.163 293.479 329.053 291.477 330.154 291.005C331.258 290.531 332.156 291.774 332.156 293.783Z" fill="white"/>
<path d="M240.185 294.669C240.24 294.444 240.368 294.243 240.548 294.096C240.728 293.95 240.951 293.867 241.183 293.859C241.415 293.852 241.643 293.92 241.833 294.054C242.022 294.188 242.163 294.38 242.233 294.601L244.569 301.964L247.792 312.12C247.872 312.374 247.855 312.649 247.742 312.89C247.63 313.132 247.432 313.322 247.186 313.425L241.089 315.966L236.186 318.009C236.004 318.084 235.805 318.108 235.61 318.077C235.415 318.047 235.233 317.962 235.083 317.834C234.934 317.706 234.823 317.539 234.763 317.351C234.702 317.163 234.696 316.963 234.743 316.772L237.646 304.982L240.185 294.669Z" fill="#E6E6E6"/>
<path d="M199.558 282.356L208.869 273.767C208.869 273.767 229.946 259.249 222.584 251.268C215.222 243.286 200.384 261.898 200.384 261.898L191.175 267.93L199.558 282.356Z" fill="#A0616A"/>
<path d="M76.4502 286.352L71.0262 293.818C71.0262 293.818 63.4463 322.968 101.805 324.516C101.805 324.516 150.793 348.264 162.92 333.385C175.047 318.507 208.508 282.717 208.508 282.717L188.824 262.712L148.712 304.637L109.797 285.137C109.797 285.137 89.7523 274.082 76.4502 286.352Z" fill="#384047"/>
<path d="M50.923 424.679L0.13501 611.796L6.53299 613.076L59.88 424.679H50.923Z" fill="#E6E6E6"/>
<path d="M112.494 424.679L163.281 611.796L156.883 613.076L103.536 424.679H112.494Z" fill="#E6E6E6"/>
<path d="M77.795 420.84L86.312 612.109L93.708 612.438L84.194 418.28L77.795 420.84Z" fill="#E6E6E6"/>
<path d="M101.469 417.814C101.469 422.665 88.1884 427.873 70.7574 429.546C52.0491 431.342 35.8459 428.427 35.8459 422.912C35.8459 417.397 52.0491 411.964 70.7574 410.853C88.1884 409.818 101.469 412.962 101.469 417.814Z" fill="#E6E6E6"/>
<path d="M120.024 385.009L132.82 393.967C132.82 393.967 187.845 433.636 182.727 448.992C177.608 464.348 149.456 525.771 149.456 525.771L113.626 514.254L154.575 448.992L132.82 428.517L121.304 400.365L120.024 385.009Z" fill="#384047"/>
<path d="M70.1176 361.976C70.1176 361.976 44.5245 401.645 59.8803 413.162C75.2361 424.678 118.744 469.466 118.744 469.466L127.702 489.941L159.693 593.592L199.362 573.118L163.532 492.5C163.532 492.5 159.693 463.068 146.897 446.433C134.1 429.797 128.981 405.484 128.981 405.484L132.82 393.967L109.908 357.305L70.1176 361.976Z" fill="#384047"/>
<path d="M139.708 518.438L116.708 511.438C116.708 511.438 91.8716 510.415 93.1512 519.373C94.4308 528.33 114.905 587.194 121.304 583.355C127.702 579.516 122.583 561.601 122.583 561.601L139.708 518.438Z" fill="#384047"/>
<path d="M88.672 237.21L75.876 251.286L96.35 284.557L105.308 258.964L88.672 237.21Z" fill="#A0616A"/>
<path d="M100.829 286.476L78.1009 248.839L70.1176 250.646V263.443L67.5582 370.933L109.787 364.535C109.787 364.535 112.346 295.434 100.829 286.476Z" fill="#0DE5A8"/>
<path d="M89.3123 285.197L70.1176 250.646L53.4821 258.324L24.0501 378.611L6.13501 413.162C6.13501 413.162 64.9989 442.594 79.0751 413.162C93.1512 383.73 94.4309 318.468 94.4309 318.468L89.3123 285.197Z" fill="#384047"/>
<path d="M61.16 263.443L53.4821 258.324C53.4821 258.324 24.0501 251.926 24.0501 290.315C24.0501 290.315 2.29601 340.222 17.6518 351.738C33.0076 363.255 70.1175 395.247 70.1175 395.247L89.3122 374.772L45.8041 336.383L63.7192 296.713C63.7192 296.713 73.9564 276.239 61.16 263.443Z" fill="#384047"/>
<path d="M70.1176 386.289L79.0751 395.247C79.0751 395.247 94.4309 415.721 102.109 408.043C109.787 400.365 90.592 386.289 90.592 386.289L84.1937 377.331L70.1176 386.289Z" fill="#A0616A"/>
<path d="M99.3456 274.863L121.304 328.705C121.304 328.705 130.261 355.577 130.261 365.815V393.967L105.948 361.976C105.948 361.976 92.7434 278.606 99.3456 274.863Z" fill="#384047"/>
<path d="M169.258 583.387C169.258 583.387 162.919 608.347 171.239 610.46C179.559 612.573 249.367 614.361 249.412 602.563C249.456 590.765 204.105 581.019 204.105 581.019L187.351 570.269L169.258 583.387Z" fill="#384047"/>
<path d="M104.668 260.883C117.389 260.883 127.702 250.571 127.702 237.85C127.702 225.128 117.389 214.816 104.668 214.816C91.9469 214.816 81.6344 225.128 81.6344 237.85C81.6344 250.571 91.9469 260.883 104.668 260.883Z" fill="#A0616A"/>
<path d="M129.23 233.714C129.23 233.714 133.729 214.217 129.23 209.718V212.718C129.23 212.718 126.23 202.219 120.231 205.219C120.231 205.219 112.733 199.22 111.233 202.219C102.409 194.241 63.2803 201.721 82.2742 243.608C82.2742 243.608 85.7374 230.714 85.7374 235.214C85.7374 235.214 94.7358 226.215 96.2356 223.216C97.7353 220.216 123.231 239.713 129.23 233.714Z" fill="#384047"/>
</svg>
