<svg width="400" height="287" viewBox="0 0 400 287" fill="none" xmlns="http://www.w3.org/2000/svg">
<g clip-path="url(#clip0)">
<path opacity="0.1" d="M393.666 192.47C384.389 211.608 365.551 224.405 346.029 232.845C319.747 244.21 290.804 248.718 262.259 246.812C257.257 246.479 252.269 245.947 247.297 245.216C230.028 242.697 213.193 237.794 197.271 230.649C192.676 228.579 188.174 226.32 183.765 223.871C176.401 219.79 169.346 215.175 162.655 210.065C160.971 208.78 159.312 207.462 157.675 206.112C156.541 205.177 155.416 204.22 154.274 203.291C151.865 201.332 149.386 199.471 146.621 198.078C145.786 197.657 144.931 197.28 144.058 196.947C135.3 193.615 125.202 194.872 116.086 197.47C109.151 199.447 102.391 202.153 95.4635 204.084C92.3821 204.969 89.2423 205.636 86.0673 206.081C78.9787 206.978 71.7801 206.346 64.9564 204.227L64.3733 204.045C63.3956 203.738 62.4261 203.402 61.4647 203.036L60.8816 202.813C59.9505 202.454 59.0391 202.069 58.1476 201.657L57.5645 201.392C56.6333 200.959 55.722 200.501 54.8304 200.019C54.5092 199.852 54.1915 199.67 53.8772 199.499C48.8047 196.666 44.1938 193.076 40.2037 188.853C40.0884 188.738 39.9802 188.619 39.8545 188.504C39.2993 187.903 38.7546 187.292 38.2274 186.667C38.0318 186.437 37.8363 186.206 37.6442 185.969C37.0181 185.205 36.414 184.424 35.832 183.626C35.7447 183.51 35.6609 183.392 35.5771 183.277C33.1929 179.978 31.2162 176.403 29.6901 172.63C29.6412 172.515 29.5958 172.396 29.5539 172.281C29.0884 171.082 28.6636 169.864 28.2795 168.625C28.1223 168.109 27.9722 167.578 27.8395 167.061C27.7941 166.907 27.7522 166.75 27.7138 166.597C25.7864 159.009 25.5664 151.121 25.5664 143.279C25.5664 142.364 25.5664 141.45 25.5664 140.538C25.6223 127.853 25.8178 114.951 27.6894 102.44C27.6894 102.353 27.7138 102.265 27.7278 102.181C28.3542 97.9697 29.2062 93.7946 30.2802 89.6742C31.4043 85.3507 32.8408 81.1146 34.5785 76.9993C38.8838 66.8733 45.1444 57.6587 52.0964 49.1179C69.6074 27.6265 92.5724 9.58479 119.452 2.83181C148.415 -4.44142 180.605 2.52804 203.968 21.1284C211.092 26.7989 217.492 33.5135 225.491 37.8607C232.475 41.6457 240.649 43.2135 248.128 40.235C254.308 37.7734 258.331 36.5513 265.272 36.9249C279.643 37.7379 293.81 40.7052 307.299 45.7275C307.843 45.9265 308.388 46.1325 308.929 46.3385C344.094 59.7921 374.322 86.5212 390.035 120.869C390.451 121.777 390.855 122.692 391.246 123.614C400.615 145.496 404.002 171.143 393.666 192.47Z" fill="#0DE5A8"/>
<path opacity="0.1" d="M42.0052 259.431C59.0293 259.431 72.8301 257.214 72.8301 254.48C72.8301 251.745 59.0293 249.528 42.0052 249.528C24.9812 249.528 11.1804 251.745 11.1804 254.48C11.1804 257.214 24.9812 259.431 42.0052 259.431Z" fill="#0DE5A8"/>
<path opacity="0.1" d="M318.535 286.289C348.72 286.289 373.191 283.913 373.191 280.982C373.191 278.051 348.72 275.674 318.535 275.674C288.349 275.674 263.879 278.051 263.879 280.982C263.879 283.913 288.349 286.289 318.535 286.289Z" fill="#0DE5A8"/>
<path d="M368.019 37.6232H44.9139C42.5053 37.6232 40.5527 39.5757 40.5527 41.9843V221.231C40.5527 223.64 42.5053 225.593 44.9139 225.593H368.019C370.428 225.593 372.381 223.64 372.381 221.231V41.9843C372.381 39.5757 370.428 37.6232 368.019 37.6232Z" fill="url(#paint0_linear)"/>
<path d="M367.531 40.2664H45.4412C43.0326 40.2664 41.0801 42.2189 41.0801 44.6275V220.606C41.0801 223.015 43.0326 224.967 45.4412 224.967H367.531C369.939 224.967 371.892 223.015 371.892 220.606V44.6275C371.892 42.2189 369.939 40.2664 367.531 40.2664Z" fill="#50585F"/>
<path d="M367.531 40.2664H45.4412C43.0326 40.2664 41.0801 42.2189 41.0801 44.6275V220.606C41.0801 223.015 43.0326 224.967 45.4412 224.967H367.531C369.939 224.967 371.892 223.015 371.892 220.606V44.6275C371.892 42.2189 369.939 40.2664 367.531 40.2664Z" fill="#50585F"/>
<path opacity="0.04" d="M367.531 40.2664H45.4412C43.0326 40.2664 41.0801 42.2189 41.0801 44.6275V220.606C41.0801 223.015 43.0326 224.967 45.4412 224.967H367.531C369.939 224.967 371.892 223.015 371.892 220.606V44.6275C371.892 42.2189 369.939 40.2664 367.531 40.2664Z" fill="#50585F"/>
<path d="M370.212 38.147H42.7596C42.3142 38.147 41.887 38.3239 41.572 38.6389C41.257 38.9539 41.0801 39.3811 41.0801 39.8265V46.9251H371.878V39.8265C371.878 39.3835 371.703 38.9584 371.391 38.6438C371.079 38.3292 370.655 38.1507 370.212 38.147Z" fill="#9CA0A4"/>
<path d="M47.6864 44.8056C48.9398 44.8056 49.956 43.7895 49.956 42.536C49.956 41.2825 48.9398 40.2664 47.6864 40.2664C46.4329 40.2664 45.4167 41.2825 45.4167 42.536C45.4167 43.7895 46.4329 44.8056 47.6864 44.8056Z" fill="#50585F"/>
<path d="M53.797 44.8056C55.0504 44.8056 56.0666 43.7895 56.0666 42.536C56.0666 41.2825 55.0504 40.2664 53.797 40.2664C52.5435 40.2664 51.5273 41.2825 51.5273 42.536C51.5273 43.7895 52.5435 44.8056 53.797 44.8056Z" fill="#50585F"/>
<path d="M59.9073 44.8056C61.1608 44.8056 62.1769 43.7895 62.1769 42.536C62.1769 41.2825 61.1608 40.2664 59.9073 40.2664C58.6538 40.2664 57.6377 41.2825 57.6377 42.536C57.6377 43.7895 58.6538 44.8056 59.9073 44.8056Z" fill="#50585F"/>
<path opacity="0.2" d="M157.103 63.434H68.3259V70.9691H157.103V63.434Z" fill="#0DE5A8"/>
<path opacity="0.1" d="M344.646 93.6477H68.3259V209.559H344.646V93.6477Z" fill="#C2C4C6"/>
<path opacity="0.1" d="M230.114 101.207H225.383V92.017C225.383 81.6466 217.115 73.0256 206.744 72.8685C204.244 72.8422 201.762 73.3111 199.444 74.2481C197.125 75.1851 195.015 76.5717 193.235 78.3279C191.454 80.0842 190.039 82.1755 189.071 84.4811C188.102 86.7868 187.6 89.2614 187.592 91.7621V101.207H182.871C180.785 101.214 178.786 102.045 177.311 103.521C175.836 104.996 175.004 106.995 174.998 109.081V146.868C175.004 148.955 175.836 150.954 177.311 152.429C178.786 153.904 180.785 154.736 182.871 154.742H230.114C232.2 154.736 234.199 153.904 235.673 152.429C237.148 150.953 237.979 148.954 237.984 146.868V109.081C237.979 106.995 237.148 104.996 235.673 103.521C234.199 102.045 232.2 101.214 230.114 101.207ZM209.251 125.771V139.305C209.256 140.022 208.988 140.713 208.502 141.24C208.015 141.766 207.347 142.088 206.632 142.141C206.259 142.158 205.886 142.1 205.537 141.969C205.187 141.838 204.867 141.638 204.597 141.38C204.326 141.122 204.111 140.812 203.964 140.469C203.817 140.125 203.741 139.756 203.741 139.382V125.764C202.464 125.141 201.435 124.104 200.824 122.821C200.212 121.539 200.053 120.086 200.372 118.702C200.692 117.317 201.471 116.081 202.584 115.197C203.696 114.312 205.075 113.83 206.496 113.83C207.917 113.83 209.297 114.312 210.409 115.197C211.521 116.081 212.301 117.317 212.62 118.702C212.94 120.086 212.781 121.539 212.169 122.821C211.557 124.104 210.529 125.141 209.251 125.764V125.771ZM219.88 101.207H193.102V91.7621C193.102 88.2125 194.512 84.8083 197.022 82.2984C199.532 79.7885 202.936 78.3784 206.486 78.3784C210.035 78.3784 213.44 79.7885 215.949 82.2984C218.459 84.8083 219.869 88.2125 219.869 91.7621L219.88 101.207Z" fill="#282F35"/>
<path d="M230.114 100.509H225.383V91.3188C225.383 80.9484 217.115 72.3274 206.744 72.1702C204.244 72.144 201.762 72.6128 199.444 73.5498C197.125 74.4868 195.015 75.8734 193.235 77.6297C191.454 79.386 190.039 81.4772 189.071 83.7829C188.102 86.0886 187.6 88.5631 187.592 91.0639V100.509H182.871C180.785 100.515 178.786 101.347 177.311 102.822C175.836 104.298 175.004 106.296 174.998 108.383V146.17C175.004 148.256 175.836 150.255 177.311 151.731C178.786 153.206 180.785 154.037 182.871 154.044H230.114C232.2 154.037 234.199 153.206 235.673 151.73C237.148 150.255 237.979 148.256 237.984 146.17V108.383C237.979 106.297 237.148 104.298 235.673 102.822C234.199 101.347 232.2 100.515 230.114 100.509V100.509ZM209.251 125.073V138.607C209.256 139.324 208.988 140.015 208.502 140.542C208.015 141.068 207.347 141.39 206.632 141.442C206.259 141.46 205.886 141.401 205.537 141.271C205.187 141.14 204.867 140.94 204.597 140.682C204.326 140.424 204.111 140.114 203.964 139.77C203.817 139.427 203.741 139.057 203.741 138.684V125.066C202.464 124.443 201.435 123.406 200.824 122.123C200.212 120.84 200.053 119.388 200.372 118.003C200.692 116.619 201.471 115.383 202.584 114.498C203.696 113.614 205.075 113.132 206.496 113.132C207.917 113.132 209.297 113.614 210.409 114.498C211.521 115.383 212.301 116.619 212.62 118.003C212.94 119.388 212.781 120.84 212.169 122.123C211.557 123.406 210.529 124.443 209.251 125.066V125.073ZM219.88 100.509H193.102V91.0639C193.102 87.5143 194.512 84.1101 197.022 81.6002C199.532 79.0902 202.936 77.6802 206.486 77.6802C210.035 77.6802 213.44 79.0902 215.949 81.6002C218.459 84.1101 219.869 87.5143 219.869 91.0639L219.88 100.509Z" fill="#0DE5A8"/>
<path opacity="0.1" d="M344.646 82.4917H316.677V89.0945H344.646V82.4917Z" fill="#747B81"/>
<path d="M354.164 282.581C353.98 281.655 353.665 280.76 353.228 279.924L349.038 273.666H349.063C349.063 273.666 348.403 270.524 349.063 268.981C349.723 267.437 346.709 263.642 346.709 263.642C346.709 263.642 346.343 262.689 347.3 261.515C348.256 260.342 346.709 256.906 346.709 256.906C346.709 256.906 345.976 249.731 345.903 248.634C345.83 247.538 345.239 241.462 345.239 241.462L343.843 228.581L341.357 194.443L341.311 193.804C341.619 193.654 341.783 193.56 341.783 193.56L341.287 174.683L341.716 174.296C345.466 170.902 354.115 163.046 354.028 162.874C353.941 162.703 352.981 149.756 352.869 146.516C352.773 144.213 352.269 141.946 351.381 139.819C351.165 139.389 350.54 136.557 350.281 135.36C350.212 135.032 350.166 134.826 350.166 134.826C350.166 134.826 347.631 129.993 347.851 127.797C348.071 125.6 348.511 123.956 343.106 123.188C343.106 123.188 338.567 122.51 335.864 120.663C334.266 119.557 332.519 118.682 330.676 118.065C330.676 118.065 329.16 115.272 328.106 116.218C327.659 115.221 327.325 114.178 327.11 113.107L327.079 112.912C329.081 111.516 330.521 109.454 331.143 107.094C331.178 106.962 331.206 106.825 331.238 106.693C331.342 106.728 331.452 106.748 331.562 106.752C332.481 106.752 333.046 105.729 333.905 105.404C334.255 105.268 334.684 105.247 334.953 104.971C335.041 104.865 335.108 104.742 335.147 104.609C335.187 104.477 335.199 104.337 335.183 104.2C335.192 104.104 335.192 104.009 335.183 103.913C335.185 103.88 335.185 103.846 335.183 103.812V103.847C334.949 102.576 333.965 101.448 334.073 100.156C334.178 98.9412 335.246 97.8727 335.159 96.689C335.158 96.5954 335.15 96.5021 335.134 96.4097V96.4516C335.004 95.9895 334.765 95.5655 334.436 95.2155C334.06 94.7034 333.567 94.2891 332.998 94.0074C332.512 93.7944 331.95 93.7455 331.496 93.4906C330.162 92.7644 330.166 90.8718 329.373 89.5799C329.034 89.0406 328.552 88.6055 327.98 88.3227C327.409 88.0399 326.771 87.9204 326.136 87.9772C325.145 88.075 324.247 88.6022 323.266 88.7733C321.925 89.0108 320.56 88.5743 319.289 88.075C318.018 87.5757 316.73 87.0275 315.364 87.0275C313.999 87.0275 312.522 87.7258 312.11 89.0143C311.89 89.7126 311.998 90.4633 311.831 91.1721C311.53 92.4222 310.434 93.316 309.299 93.9376C308.601 94.3251 307.77 94.7686 307.553 95.5018C307.553 95.4809 307.553 95.4634 307.553 95.446C307.538 95.5045 307.526 95.564 307.518 95.6241C307.512 95.7019 307.512 95.7802 307.518 95.858C307.518 96.3608 307.784 96.8392 307.962 97.3175C308.294 98.2276 308.286 99.2268 307.941 100.132C307.683 100.795 307.243 101.378 306.991 102.038C306.873 102.346 306.795 102.667 306.761 102.995V102.939C306.752 103.088 306.752 103.237 306.761 103.386C306.756 103.896 306.876 104.399 307.11 104.853C307.27 105.166 307.491 105.443 307.761 105.669C308.03 105.896 308.342 106.065 308.678 106.169C309.376 106.33 309.813 105.645 310.549 105.82C310.681 105.852 310.811 105.892 310.937 105.942C310.961 106.099 310.986 106.256 311.014 106.41C311.459 108.76 312.711 110.88 314.554 112.405C314.554 112.489 314.582 112.573 314.593 112.66C314.816 114.052 314.913 115.462 314.883 116.871C314.883 116.871 313.783 115.261 312.274 118.369C312.274 118.369 308.339 120.639 306.981 120.897C305.623 121.155 300.8 122.835 300.8 122.835C300.073 123.361 299.198 123.643 298.3 123.642C296.795 123.642 295.545 126.934 295.727 128.725C295.909 130.517 295.619 131.837 294.219 131.91C292.818 131.983 293.583 134.822 293.594 134.871L293.464 135.482C293.192 136.732 292.598 139.414 292.389 139.833C291.501 141.96 290.996 144.227 290.898 146.53C290.79 149.77 289.85 162.668 289.742 162.888C289.669 163.032 295.594 168.447 299.76 172.232L300.364 172.777L298.447 190.682C298.503 191.372 298.708 192.042 299.048 192.645C299.388 193.248 299.855 193.769 300.416 194.174C300.416 194.384 300.416 194.597 300.395 194.817C300.312 196.912 300.144 199.447 299.809 200.11C299.222 201.283 299.369 207.575 299.369 207.575C299.369 207.575 298.779 220.383 298.045 221.776C297.312 223.169 297.162 226.092 297.382 226.665C297.602 227.237 296.645 242.618 296.645 242.618L295.912 249.5C295.912 249.5 296.132 256.086 295.469 256.232C294.805 256.379 294.439 260.918 294.439 260.918C294.439 260.918 292.089 264.138 293.115 265.307C294.142 266.477 292.965 266.994 292.857 267.284C292.749 267.573 290.615 268.68 292.158 272.773C292.173 272.813 292.189 272.853 292.207 272.891C290.762 274.899 286.181 281.376 286.46 282.361C286.666 282.987 287.103 283.512 287.682 283.827C288.761 284.473 290.612 284.774 293.555 283.827C298.444 282.253 298.094 281.118 298.094 281.118C298.119 280.587 298.347 280.086 298.73 279.719C299.114 279.351 299.623 279.144 300.154 279.141C302.176 278.995 303.685 277.13 303.685 277.13L303.447 276.247L303.122 275.025C303.161 274.676 303.409 274.065 304.519 273.726C306.213 273.213 305.769 269.993 305.769 269.993C305.769 269.993 305.622 266.627 306.356 266.187C307.089 265.747 306.799 260.185 306.799 260.185C306.799 260.185 307.609 256.159 308.782 253.449C309.956 250.74 311.359 234.643 311.359 234.643C311.359 234.643 312.313 226.738 313.196 224.468C314.079 222.199 314.889 215.833 314.889 215.833C314.889 215.833 320.333 205.292 320.403 202.949C320.403 202.949 321.101 200.753 321.8 203.169C322.498 205.585 324.46 211.367 324.46 211.367L326.37 218.466L328.65 229.077L330.124 238.009C330.124 238.009 329.9 241.375 330.473 242.548C331.046 243.722 331.87 246.424 331.43 246.937C330.99 247.451 332.31 249.867 332.68 250.377C333.05 250.887 332.68 261.721 332.68 261.721C332.68 261.721 334.37 270.943 336.796 272.546C336.966 272.657 337.146 272.75 337.334 272.825C337.299 273.824 337.264 275.161 337.31 275.859C337.304 276.015 337.331 276.171 337.387 276.317C337.607 276.61 340.107 278.586 340.623 278.586C341.14 278.586 342.973 279.868 343.05 280.489C343.127 281.111 348.424 283.744 349.175 283.82C349.925 283.897 353.564 284.55 354.063 283.527C354.186 283.228 354.222 282.899 354.164 282.581ZM341.151 150.692L341.528 151.017C341.528 151.017 341.915 154.037 342.191 154.941C342.467 155.846 342.135 157.605 342.135 157.605C342.161 158.262 342.292 158.911 342.523 159.526C342.851 160.186 341.859 161.621 341.859 161.621H340.976L340.7 150.315L341.151 150.692ZM314.883 116.934V116.868C314.876 116.889 314.872 116.913 314.872 116.934H314.883ZM301.317 160.458C301.181 160.166 301.161 159.833 301.261 159.526C301.34 159.36 301.402 159.187 301.446 159.009C301.555 158.55 301.623 158.083 301.649 157.612C301.649 157.607 301.649 157.601 301.649 157.595C301.618 157.427 301.335 155.807 301.597 154.948C301.858 154.089 302.256 151.024 302.256 151.024L302.508 150.811L303.091 150.304C303.091 150.304 303.091 150.116 303.133 149.805C303.255 152.459 303.353 155.392 303.196 155.538C302.902 155.828 301.834 158.681 302.092 158.793C302.176 158.831 302.061 159.973 301.865 161.509C301.646 161.179 301.462 160.827 301.317 160.458V160.458Z" fill="url(#paint1_linear)"/>
<path d="M329.46 119.724V124.068L320.55 128.547C320.55 128.547 311.702 123.195 313.884 121.065C315.281 119.717 315.012 116.016 314.635 113.47C314.415 111.99 314.16 110.904 314.16 110.904C314.16 110.904 330.054 106.365 327.652 109.811C326.849 110.963 326.786 112.454 327.055 113.931C327.599 116.861 329.46 119.724 329.46 119.724Z" fill="#C37098"/>
<path d="M305.05 162.2L303.901 176.349C303.901 176.349 302.18 174.788 299.952 172.756C295.821 168.988 289.955 163.601 290.025 163.458C290.133 163.238 291.073 150.402 291.174 147.176C291.269 144.886 291.768 142.63 292.647 140.513C292.857 140.094 293.447 137.427 293.695 136.18C293.779 135.793 293.831 135.541 293.831 135.541L295.758 134.766C295.758 134.766 303.789 143.726 303.789 143.89C303.789 144.054 303.241 150.936 303.241 150.936L302.672 151.432L302.424 151.645C302.424 151.645 302.04 154.651 301.768 155.552C301.495 156.453 301.789 158.017 301.82 158.185C301.794 158.655 301.728 159.123 301.621 159.582C301.575 159.758 301.514 159.93 301.436 160.095C301.338 160.401 301.357 160.732 301.492 161.024C301.647 161.429 301.849 161.814 302.092 162.173L305.05 162.2Z" fill="#384047"/>
<path d="M353.721 163.458C353.805 163.629 345.24 171.447 341.528 174.823L339.845 176.349L338.707 162.201H341.657C341.657 162.201 342.642 160.779 342.313 160.123C342.085 159.511 341.956 158.866 341.933 158.213C341.933 158.213 342.258 156.467 341.985 155.563C341.713 154.658 341.329 151.656 341.329 151.656L340.955 151.334L340.512 150.947C340.512 150.947 339.964 144.065 339.964 143.9C339.964 143.736 347.994 134.777 347.994 134.777L349.908 135.541C349.908 135.541 349.95 135.747 350.02 136.076C350.278 137.266 350.896 140.084 351.109 140.513C351.988 142.63 352.487 144.886 352.583 147.176C352.673 150.402 353.609 163.238 353.721 163.458Z" fill="#384047"/>
<path d="M353.756 283.551C353.242 284.571 349.639 283.901 348.895 283.845C348.152 283.789 342.9 281.146 342.827 280.528C342.753 279.91 340.934 278.635 340.424 278.635C339.915 278.635 337.439 276.666 337.219 276.376C337.163 276.231 337.138 276.077 337.146 275.922C337.069 274.724 337.219 271.641 337.219 271.641L347.781 272.224L352.914 279.945C353.347 280.777 353.659 281.667 353.843 282.588C353.905 282.911 353.875 283.245 353.756 283.551V283.551Z" fill="#384047"/>
<path opacity="0.1" d="M353.756 283.551C353.242 284.571 349.639 283.901 348.895 283.845C348.152 283.789 342.9 281.146 342.827 280.528C342.753 279.91 340.934 278.635 340.424 278.635C339.915 278.635 337.439 276.666 337.219 276.376C337.163 276.231 337.138 276.077 337.146 275.922C337.069 274.724 337.219 271.641 337.219 271.641L347.781 272.224L352.914 279.945C353.347 280.777 353.659 281.667 353.843 282.588C353.905 282.911 353.875 283.245 353.756 283.551V283.551Z" fill="#282F35"/>
<path opacity="0.1" d="M353.756 283.551C353.242 284.571 349.639 283.9 348.895 283.845C348.152 283.789 342.9 281.145 342.827 280.527C342.753 279.909 340.934 278.635 340.424 278.635C339.915 278.635 337.439 276.666 337.219 276.376C337.163 276.231 337.138 276.077 337.146 275.922L340.568 278.087C340.568 278.087 342.753 279.483 343.337 280.311C343.92 281.139 348.515 282.86 348.895 282.895C349.178 282.923 352.195 282.343 353.843 282.588C353.905 282.911 353.875 283.245 353.756 283.551V283.551Z" fill="#282F35"/>
<path d="M303.824 277.179C303.824 277.179 302.33 279.037 300.333 279.18C299.806 279.184 299.3 279.39 298.921 279.756C298.541 280.122 298.317 280.619 298.294 281.146C298.294 281.146 298.643 282.277 293.814 283.845C290.898 284.784 289.065 284.487 287.996 283.845C287.423 283.529 286.99 283.007 286.785 282.385C286.457 281.223 292.902 272.371 292.902 272.371L298.768 272.022L302.958 273.914L303.601 276.313L303.824 277.179Z" fill="#384047"/>
<path opacity="0.1" d="M303.824 277.179C303.824 277.179 302.33 279.037 300.333 279.18C299.806 279.184 299.3 279.39 298.921 279.756C298.541 280.122 298.317 280.619 298.294 281.146C298.294 281.146 298.643 282.277 293.814 283.845C290.898 284.784 289.065 284.487 287.996 283.845C287.423 283.529 286.99 283.007 286.785 282.385C286.457 281.223 292.902 272.371 292.902 272.371L298.768 272.022L302.958 273.914L303.601 276.313L303.824 277.179Z" fill="#282F35"/>
<path opacity="0.1" d="M303.824 277.179C303.824 277.179 302.33 279.037 300.333 279.18C299.806 279.184 299.3 279.39 298.921 279.756C298.541 280.122 298.317 280.619 298.294 281.146C298.294 281.146 298.643 282.277 293.814 283.845C290.898 284.784 289.065 284.487 287.997 283.845C290.745 283.559 296.817 281.823 297.424 281.223C298.154 280.493 299.065 278.489 299.683 278.454C300.113 278.426 302.295 277.113 303.604 276.299L303.824 277.179Z" fill="#282F35"/>
<path d="M348.801 269.057C348.145 270.587 348.801 273.719 348.801 273.719C348.801 273.719 339.024 274.229 336.636 272.626C334.248 271.023 332.558 261.844 332.558 261.844C332.558 261.844 332.907 251.065 332.558 250.555C332.208 250.045 330.882 247.643 331.318 247.133C331.754 246.623 330.969 243.928 330.372 242.761C329.775 241.595 330.023 238.247 330.023 238.247L328.563 229.357L326.307 218.798L324.39 211.731C324.39 211.731 322.425 205.976 321.758 203.574C321.091 201.172 320.385 203.354 320.385 203.354C320.316 205.686 314.924 216.175 314.924 216.175C314.924 216.175 314.121 222.513 313.248 224.769C312.375 227.024 311.426 234.895 311.426 234.895C311.426 234.895 310.029 250.918 308.877 253.614C307.724 256.309 306.932 260.314 306.932 260.314C306.932 260.314 307.225 265.852 306.495 266.289C305.766 266.725 305.884 270.077 305.884 270.077C305.884 270.077 306.321 273.279 304.645 273.792C302.969 274.305 303.248 275.395 303.248 275.395C303.248 275.395 293.925 276.924 292.396 272.842C290.866 268.761 292.979 267.675 293.094 267.381C293.209 267.088 294.372 266.582 293.353 265.412C292.333 264.242 294.662 261.044 294.662 261.044C294.662 261.044 295.029 256.529 295.682 256.383C296.335 256.236 296.121 249.682 296.121 249.682L296.848 242.835C296.848 242.835 297.798 227.538 297.578 226.954C297.358 226.371 297.504 223.463 298.234 222.066C298.964 220.669 299.543 207.932 299.543 207.932C299.543 207.932 299.397 201.671 299.98 200.505C300.329 199.845 300.476 197.306 300.559 195.236C300.622 193.654 300.636 192.345 300.636 192.345L308.793 189.286L319.268 185.937L328.081 190.162L340.976 192.638L341.137 194.862L343.598 228.84L344.995 241.658C344.995 241.658 345.578 247.702 345.651 248.795C345.725 249.888 346.451 257.029 346.451 257.029C346.451 257.029 347.98 260.45 347.034 261.617C346.088 262.783 346.451 263.712 346.451 263.712C346.451 263.712 349.457 267.528 348.801 269.057Z" fill="#384047"/>
<path opacity="0.1" d="M327.659 109.811C326.856 110.963 326.793 112.454 327.062 113.931C325.227 115.225 323.017 115.881 320.773 115.797C318.529 115.713 316.375 114.894 314.642 113.467V113.467C314.422 111.986 314.167 110.9 314.167 110.9C314.167 110.9 330.061 106.368 327.659 109.811Z" fill="#282F35"/>
<path d="M331.374 105.355C331.374 107.379 330.774 109.357 329.65 111.039C328.526 112.722 326.928 114.033 325.058 114.807C323.189 115.582 321.132 115.784 319.147 115.389C317.163 114.995 315.34 114.02 313.909 112.59C312.478 111.159 311.504 109.336 311.109 107.351C310.714 105.367 310.917 103.31 311.691 101.44C312.466 99.5708 313.777 97.973 315.459 96.8488C317.142 95.7246 319.12 95.1246 321.143 95.1246C322.489 95.1182 323.822 95.3784 325.066 95.8902C326.31 96.4021 327.441 97.1554 328.392 98.1067C329.343 99.058 330.097 100.188 330.608 101.433C331.12 102.677 331.381 104.01 331.374 105.355Z" fill="#C37098"/>
<path opacity="0.1" d="M333.504 122.356L330.152 182.047L311.942 178.224L308.335 154.295L311.907 122.171L314.596 122.517L319.338 123.121L324.034 123.411L329.125 122.845L333.504 122.356Z" fill="#282F35"/>
<path d="M333.504 122.793L330.152 182.484L311.942 178.661L308.335 154.732L311.907 122.612L314.596 122.954L319.338 123.558L324.034 123.848L329.125 123.282L333.504 122.793Z" fill="#0DE5A8"/>
<path d="M318.535 124.396L325.092 124.616L323.249 127.196C323.249 127.196 323.378 132.409 324.254 133.904C325.131 135.398 324.872 158.485 324.872 158.485L323.127 161.799L320.141 158.084L320.18 127.601L318.535 124.396Z" fill="#384047"/>
<path opacity="0.1" d="M318.535 124.396L325.092 124.616L323.249 127.196C323.249 127.196 323.378 132.409 324.254 133.904C325.131 135.398 324.872 158.485 324.872 158.485L323.127 161.799L320.141 158.084L320.18 127.601L318.535 124.396Z" fill="#282F35"/>
<path opacity="0.1" d="M328.804 117.622L322.687 124.396L326.182 128.038L331.974 122.392L328.804 117.622Z" fill="#282F35"/>
<path d="M328.804 117.185L322.687 123.959L326.182 127.601L331.974 121.955L328.804 117.185Z" fill="#0DE5A8"/>
<path opacity="0.1" d="M320.103 124.067L313.908 117.877L313.325 121.117L316.167 128.219L320.103 124.067Z" fill="#282F35"/>
<path d="M320.319 123.631L314.128 117.44L313.545 120.68L316.387 127.783L320.319 123.631Z" fill="#0DE5A8"/>
<path opacity="0.1" d="M341.168 194.872C338.195 196.289 335.011 197.21 331.74 197.599C325.731 198.364 321.8 190.717 321.8 190.717L319.506 193.703C318.776 196.873 307.669 197.673 303.154 196.472C302.217 196.24 301.336 195.824 300.563 195.246C300.626 193.664 300.64 192.355 300.64 192.355L308.796 189.296L319.272 185.948L328.085 190.173L340.98 192.648L341.168 194.872Z" fill="#282F35"/>
<path opacity="0.1" d="M333.504 122.797L330.155 182.484L311.943 178.661L308.329 154.735L311.897 122.612L314.586 122.961C314.517 124.131 314.385 125.296 314.191 126.452C313.755 128.495 316.45 142.989 316.45 142.989C316.45 142.989 321.573 159.243 323.877 156.9C326.182 154.557 329.464 142.186 329.464 142.186C331.688 137.598 329.502 124.728 329.338 124.469C329.224 124.089 329.154 123.696 329.129 123.299L333.504 122.797Z" fill="#282F35"/>
<path opacity="0.1" d="M341.371 168.985L341.524 174.833L339.841 176.359L338.707 162.2H341.221L341.371 168.985Z" fill="#282F35"/>
<path opacity="0.1" d="M301.823 158.195C301.798 158.666 301.731 159.133 301.624 159.592C301.624 159.463 301.624 159.39 301.597 159.379C301.492 159.351 301.617 158.817 301.823 158.195Z" fill="#282F35"/>
<path opacity="0.1" d="M305.05 162.201L303.901 176.349C303.901 176.349 302.18 174.788 299.952 172.756L300.217 170.249C300.217 170.249 301.157 164.09 301.499 161.052C301.654 161.457 301.855 161.842 302.099 162.201H305.05Z" fill="#282F35"/>
<path d="M314.928 117.657C314.928 117.657 313.839 116.054 312.344 119.148C312.344 119.148 308.447 121.407 307.107 121.662C305.766 121.917 300.996 123.593 300.996 123.593C300.276 124.113 299.409 124.393 298.52 124.392C297.026 124.392 295.786 127.671 295.968 129.455C296.15 131.239 295.86 132.552 294.477 132.626C293.094 132.699 293.856 135.573 293.856 135.573L303.07 146.135C303.07 146.135 303.653 155.86 303.363 156.153C303.074 156.446 302.016 159.295 302.271 159.393C302.525 159.491 300.874 170.245 300.874 170.245L298.653 191.115C298.653 191.115 298.653 194.607 303.171 195.812C307.69 197.016 318.804 196.22 319.52 193.05L321.814 190.061C321.814 190.061 325.745 197.711 331.755 196.947C337.764 196.182 341.591 193.996 341.591 193.996L340.934 168.985L340.498 150.957L349.88 135.541C349.88 135.541 347.366 130.733 347.586 128.558C347.806 126.382 348.239 124.734 342.886 123.97C342.886 123.97 338.371 123.296 335.711 121.456C334.129 120.358 332.402 119.488 330.578 118.872C330.578 118.872 329.076 116.078 328.032 117.035C328.032 117.035 329.08 120.984 328.993 121.574C328.905 122.164 329.157 124.832 329.321 125.108C329.485 125.384 331.671 138.237 329.447 142.825C329.447 142.825 326.182 155.196 323.86 157.539C321.538 159.882 316.433 143.628 316.433 143.628C316.433 143.628 313.737 129.13 314.174 127.091C314.61 125.052 314.928 117.657 314.928 117.657Z" fill="#384047"/>
<path d="M322.722 165.406C323.607 165.406 324.324 164.688 324.324 163.803C324.324 162.918 323.607 162.2 322.722 162.2C321.836 162.2 321.119 162.918 321.119 163.803C321.119 164.688 321.836 165.406 322.722 165.406Z" fill="#384047"/>
<path d="M322.722 172.962C323.607 172.962 324.324 172.244 324.324 171.359C324.324 170.474 323.607 169.757 322.722 169.757C321.836 169.757 321.119 170.474 321.119 171.359C321.119 172.244 321.836 172.962 322.722 172.962Z" fill="#384047"/>
<path opacity="0.1" d="M322.722 165.406C323.607 165.406 324.324 164.688 324.324 163.803C324.324 162.918 323.607 162.2 322.722 162.2C321.836 162.2 321.119 162.918 321.119 163.803C321.119 164.688 321.836 165.406 322.722 165.406Z" fill="#282F35"/>
<path opacity="0.1" d="M322.722 172.962C323.607 172.962 324.324 172.244 324.324 171.359C324.324 170.474 323.607 169.757 322.722 169.757C321.836 169.757 321.119 170.474 321.119 171.359C321.119 172.244 321.836 172.962 322.722 172.962Z" fill="#282F35"/>
<path opacity="0.1" d="M337.125 266.872C337.125 266.872 343.703 267.381 344.356 267.891C345.009 268.401 337.125 266.872 337.125 266.872Z" fill="#282F35" stroke="#0DE5A8" stroke-miterlimit="10"/>
<path opacity="0.1" d="M297.958 261.7C297.958 261.7 299.355 263.446 298.761 264.249C298.168 265.052 297.958 261.7 297.958 261.7Z" fill="#282F35" stroke="#0DE5A8" stroke-miterlimit="10"/>
<path opacity="0.1" d="M299.634 267.996C299.634 267.996 302.183 266.32 303.203 267.434C304.222 268.547 299.634 267.996 299.634 267.996Z" fill="#282F35" stroke="#0DE5A8" stroke-miterlimit="10"/>
<path opacity="0.1" d="M331.374 105.355C331.376 106.228 331.265 107.098 331.046 107.943C330.83 107.845 330.65 107.683 330.529 107.48C330.408 107.276 330.352 107.041 330.368 106.805C330.414 106.389 330.689 106.008 330.63 105.596C330.543 104.961 329.775 104.702 329.37 104.2C328.87 103.592 328.979 102.709 329.02 101.923C329.062 101.137 328.863 100.177 328.127 99.9084C327.907 99.8281 327.666 99.8211 327.453 99.7303C326.873 99.4859 326.695 98.7666 326.307 98.2707C325.532 97.2721 323.992 97.2931 322.816 97.7679C322.303 98.0135 321.779 98.2326 321.244 98.4244C320.977 98.5188 320.692 98.5567 320.409 98.5357C320.126 98.5146 319.851 98.4351 319.6 98.3022C319.369 98.1555 319.184 97.953 318.947 97.8063C318.158 97.3315 317.124 97.8063 316.44 98.4174C315.755 99.0284 315.207 99.849 314.345 100.223C313.957 100.397 313.479 100.502 313.297 100.879C313.207 101.084 313.169 101.309 313.186 101.532C313.186 102.89 313.346 104.27 313.063 105.6C312.882 106.455 312.281 107.426 311.412 107.321C311.303 107.305 311.197 107.278 311.094 107.241C310.832 105.842 310.865 104.405 311.19 103.02C311.516 101.635 312.126 100.333 312.983 99.197C313.84 98.0613 314.925 97.1168 316.167 96.4238C317.41 95.7308 318.783 95.3047 320.2 95.1725C321.616 95.0404 323.045 95.2051 324.394 95.6563C325.744 96.1075 326.984 96.8351 328.036 97.7927C329.088 98.7504 329.929 99.9169 330.505 101.218C331.081 102.519 331.379 103.926 331.381 105.348L331.374 105.355Z" fill="#282F35"/>
<path d="M310.637 106.661C310.899 106.721 311.147 106.857 311.415 106.892C312.285 106.997 312.885 106.026 313.067 105.17C313.35 103.84 313.203 102.461 313.193 101.102C313.173 100.879 313.21 100.655 313.301 100.45C313.5 100.072 313.978 99.9677 314.348 99.7931C315.193 99.416 315.745 98.6129 316.443 97.9879C317.142 97.3629 318.158 96.902 318.947 97.3768C319.181 97.5165 319.369 97.726 319.6 97.8727C319.852 98.0037 320.128 98.0821 320.411 98.1031C320.695 98.1241 320.979 98.0873 321.248 97.9949C321.789 97.8343 322.296 97.5514 322.816 97.3384C323.982 96.8636 325.525 96.8461 326.307 97.8377C326.695 98.3371 326.873 99.0529 327.453 99.2973C327.666 99.3881 327.907 99.3985 328.127 99.4789C328.863 99.7547 329.052 100.708 329.021 101.494C328.989 102.279 328.884 103.163 329.37 103.77C329.775 104.266 330.543 104.524 330.63 105.167C330.686 105.579 330.414 105.963 330.368 106.375C330.358 106.528 330.378 106.682 330.427 106.827C330.477 106.972 330.555 107.106 330.656 107.221C330.758 107.336 330.882 107.43 331.02 107.497C331.158 107.564 331.308 107.603 331.461 107.611C332.369 107.611 332.931 106.595 333.78 106.27C334.129 106.134 334.551 106.113 334.827 105.837C334.93 105.705 335.002 105.551 335.04 105.388C335.077 105.225 335.078 105.055 335.044 104.891C334.873 103.554 333.801 102.391 333.916 101.05C334.024 99.7652 335.215 98.6443 334.963 97.3803C334.835 96.9143 334.596 96.4864 334.265 96.1338C333.891 95.6265 333.403 95.2139 332.84 94.9292C332.355 94.7196 331.793 94.6708 331.35 94.4159C330.03 93.6931 330.033 91.8076 329.254 90.5226C328.92 89.9916 328.446 89.5628 327.885 89.2831C327.323 89.0035 326.695 88.8839 326.07 88.9374C325.089 89.0351 324.198 89.5554 323.228 89.73C321.897 89.9674 320.55 89.531 319.289 89.0316C318.029 88.5323 316.754 87.9841 315.403 87.9841C314.052 87.9841 312.589 88.6825 312.177 89.9604C311.96 90.6588 312.068 91.406 311.901 92.1078C311.607 93.3544 310.504 94.2413 309.394 94.8593C308.629 95.2853 307.711 95.7741 307.62 96.6436C307.56 97.1953 307.864 97.6911 308.056 98.2253C308.383 99.1291 308.376 100.12 308.035 101.019C307.78 101.679 307.354 102.258 307.096 102.915C306.913 103.36 306.826 103.84 306.842 104.321C306.857 104.803 306.975 105.275 307.187 105.708C307.35 106.024 307.575 106.302 307.85 106.528C308.124 106.753 308.441 106.919 308.783 107.017C309.47 107.182 309.903 106.501 310.637 106.661Z" fill="#384047"/>
<g opacity="0.1">
<path opacity="0.1" d="M313.067 104.409C312.885 105.265 312.281 106.235 311.412 106.131C311.143 106.096 310.899 105.959 310.633 105.9C309.903 105.739 309.47 106.424 308.783 106.249C308.441 106.151 308.123 105.985 307.848 105.759C307.573 105.534 307.347 105.255 307.183 104.94C307.001 104.584 306.89 104.196 306.859 103.798C306.789 104.416 306.902 105.041 307.183 105.596C307.347 105.912 307.573 106.191 307.848 106.416C308.123 106.641 308.441 106.808 308.783 106.906C309.481 107.066 309.903 106.382 310.633 106.556C310.889 106.645 311.149 106.721 311.412 106.783C312.281 106.892 312.885 105.921 313.067 105.066C313.21 104.31 313.266 103.54 313.234 102.771C313.231 103.321 313.175 103.87 313.067 104.409V104.409Z" fill="#282F35"/>
<path opacity="0.1" d="M308.283 99.1507C308.328 98.5785 308.249 98.0035 308.053 97.4642C307.895 97.1057 307.761 96.7371 307.651 96.3608C307.636 96.4195 307.625 96.4789 307.616 96.5389C307.557 97.0871 307.864 97.5864 308.053 98.1207C308.175 98.4523 308.252 98.7987 308.283 99.1507V99.1507Z" fill="#282F35"/>
<path opacity="0.1" d="M334.96 97.3105C334.796 98.3022 333.993 99.2345 333.912 100.279C333.893 100.457 333.893 100.638 333.912 100.816C334.087 99.5976 335.166 98.5187 334.96 97.3105Z" fill="#282F35"/>
<path opacity="0.1" d="M335.019 104.678C334.99 104.824 334.921 104.959 334.82 105.069C334.562 105.345 334.122 105.366 333.773 105.502C332.924 105.827 332.376 106.853 331.454 106.843C331.218 106.829 330.992 106.745 330.805 106.6C330.618 106.456 330.479 106.258 330.407 106.033C330.385 106.108 330.369 106.185 330.358 106.263C330.348 106.416 330.368 106.569 330.418 106.714C330.468 106.859 330.546 106.993 330.647 107.107C330.749 107.222 330.872 107.315 331.01 107.382C331.148 107.449 331.298 107.487 331.451 107.496C332.362 107.496 332.921 106.48 333.769 106.158C334.118 106.022 334.544 106.001 334.817 105.725C334.919 105.593 334.992 105.44 335.029 105.276C335.067 105.113 335.068 104.943 335.033 104.779C335.03 104.737 335.023 104.709 335.019 104.678Z" fill="#282F35"/>
<path opacity="0.1" d="M330.641 104.388C330.553 103.753 329.785 103.494 329.38 102.992C329.132 102.661 328.997 102.26 328.996 101.846C328.968 102.496 328.979 103.159 329.38 103.648C329.782 104.137 330.393 104.346 330.588 104.849C330.638 104.701 330.656 104.544 330.641 104.388V104.388Z" fill="#282F35"/>
<path opacity="0.1" d="M329.017 100.732C329.045 99.9468 328.856 98.9866 328.12 98.7177C327.903 98.6374 327.662 98.6269 327.449 98.5396C326.87 98.2952 326.688 97.5759 326.304 97.0801C325.525 96.085 323.985 96.1024 322.812 96.5773C322.288 96.7903 321.789 97.0731 321.244 97.2337C320.977 97.3281 320.692 97.366 320.409 97.345C320.126 97.324 319.851 97.2445 319.6 97.1115C319.369 96.9649 319.181 96.7623 318.947 96.6157C318.154 96.1408 317.121 96.6157 316.44 97.2267C315.759 97.8378 315.207 98.6549 314.345 99.032C313.954 99.2065 313.479 99.3113 313.276 99.6884C313.188 99.894 313.15 100.118 313.168 100.341C313.168 100.478 313.168 100.614 313.168 100.75C313.173 100.609 313.207 100.471 313.269 100.345C313.472 99.9677 313.947 99.863 314.338 99.6884C315.183 99.3113 315.735 98.5082 316.433 97.8832C317.131 97.2582 318.147 96.7973 318.94 97.2721C319.174 97.4118 319.362 97.6213 319.593 97.7645C319.843 97.8982 320.119 97.9782 320.402 97.9992C320.685 98.0203 320.97 97.9819 321.237 97.8867C321.771 97.6967 322.295 97.4788 322.805 97.2337C323.975 96.7589 325.515 96.7379 326.297 97.733C326.681 98.2289 326.863 98.9482 327.442 99.1926C327.655 99.2834 327.896 99.2938 328.113 99.3741C328.71 99.5976 328.947 100.268 329 100.931L329.017 100.732Z" fill="#282F35"/>
</g>
<g opacity="0.1">
<path opacity="0.1" d="M311.82 104.388C311.84 103.809 312.048 103.251 312.412 102.8C312.776 102.348 313.276 102.027 313.839 101.885C315.396 101.504 317.029 101.578 318.545 102.098C321.859 103.194 318.126 107.14 318.126 107.14C318.126 107.14 315.644 109.584 313.329 107.876C312.645 107.36 312.166 106.617 311.977 105.781C311.864 105.326 311.811 104.858 311.82 104.388V104.388Z" fill="#282F35"/>
<path opacity="0.1" d="M330.037 104.388C330.016 103.808 329.808 103.25 329.444 102.799C329.079 102.347 328.578 102.027 328.015 101.885C326.459 101.505 324.827 101.579 323.312 102.098C319.998 103.194 323.731 107.14 323.731 107.14C323.731 107.14 326.21 109.584 328.528 107.876C329.212 107.36 329.691 106.617 329.879 105.781C329.993 105.326 330.046 104.858 330.037 104.388Z" fill="#282F35"/>
<path opacity="0.1" d="M317.92 101.777V101.941H323.972V101.745L317.92 101.777Z" fill="#282F35"/>
<path opacity="0.1" d="M319.851 103.526H320.043V102.971C320.043 102.971 320.658 102.492 321.677 102.971V103.466H322.027V103.142H321.855C321.855 103.142 321.925 102.468 320.787 102.576C320.787 102.576 319.872 102.489 319.893 103.068H319.684L319.851 103.526Z" fill="#282F35"/>
</g>
<path d="M311.82 104.161C311.84 103.582 312.048 103.024 312.412 102.573C312.776 102.121 313.277 101.8 313.839 101.658C315.396 101.28 317.029 101.353 318.545 101.871C321.859 102.971 318.126 106.913 318.126 106.913C318.126 106.913 315.644 109.357 313.329 107.649C312.644 107.134 312.165 106.391 311.978 105.554C311.864 105.099 311.811 104.63 311.82 104.161V104.161Z" fill="#0DE5A8"/>
<path d="M330.036 104.161C330.016 103.581 329.808 103.024 329.444 102.572C329.079 102.12 328.578 101.8 328.015 101.658C326.459 101.28 324.827 101.353 323.311 101.871C319.998 102.971 323.73 106.913 323.73 106.913C323.73 106.913 326.21 109.357 328.528 107.649C329.213 107.134 329.692 106.391 329.879 105.554C329.993 105.099 330.046 104.631 330.036 104.161Z" fill="#0DE5A8"/>
<path d="M317.92 101.556V101.724H323.972V101.525L317.92 101.556Z" fill="#0DE5A8"/>
<path d="M319.851 103.306H320.043V102.751C320.043 102.751 320.658 102.276 321.677 102.751V103.25H322.027V102.922H321.855C321.855 102.922 321.925 102.251 320.787 102.356C320.787 102.356 319.872 102.272 319.893 102.848H319.684L319.851 103.306Z" fill="#0DE5A8"/>
<path d="M42.997 159.638H41.0137V204.297H42.997V159.638Z" fill="#282F35"/>
<path d="M55.4625 204.161L55.3368 206.172L55.1622 209.011L55.0889 210.194L54.9143 213.036L54.8374 214.22L54.6629 217.059L52.6621 249.347C52.5768 250.736 51.9646 252.041 50.9505 252.995C49.9364 253.949 48.5967 254.48 47.2046 254.48H36.8063C35.4145 254.48 34.0752 253.948 33.0616 252.995C32.0481 252.041 31.4367 250.736 31.3522 249.347L29.341 217.059L29.1664 214.22L29.0931 213.036L28.922 210.187L28.8486 209.004L28.6741 206.165L28.5484 204.154C28.5245 203.768 28.58 203.381 28.7114 203.017C28.8427 202.653 29.0472 202.32 29.3122 202.039C29.5772 201.757 29.8971 201.533 30.2522 201.379C30.6072 201.226 30.9899 201.147 31.3766 201.147H52.6377C53.0249 201.147 53.4081 201.226 53.7634 201.38C54.1188 201.534 54.4388 201.759 54.7037 202.041C54.9685 202.324 55.1725 202.658 55.303 203.022C55.4335 203.387 55.4878 203.774 55.4625 204.161V204.161Z" fill="#384047"/>
<path d="M55.3366 206.172L55.162 209.01H28.845L28.6704 206.172H55.3366Z" fill="#747B81"/>
<path d="M55.0888 210.194L54.9142 213.036H29.0965L28.9185 210.194H55.0888Z" fill="#747B81"/>
<path d="M54.8373 214.22L54.6627 217.059H29.3478L29.1697 214.22H54.8373Z" fill="#747B81"/>
<path d="M25.6431 176.377C37.1936 184.732 42.0052 197.805 42.0052 197.805C42.0052 197.805 28.0838 197.327 16.5157 188.971C4.94768 180.616 0.153564 167.543 0.153564 167.543C0.153564 167.543 14.089 168.021 25.6431 176.377Z" fill="#0DE5A8"/>
<path d="M0.171143 167.543C0.171143 167.543 14.6198 175.574 19.2533 182.208C23.8868 188.842 42.0053 197.809 42.0053 197.809" stroke="#282F35" stroke-width="2" stroke-miterlimit="10"/>
<path d="M33.0979 159.557C39.383 164.097 42.0053 171.22 42.0053 171.22C42.0053 171.22 34.4283 170.961 28.1397 166.412C21.8511 161.862 19.2358 154.749 19.2358 154.749C19.2358 154.749 26.8129 154.99 33.0979 159.557Z" fill="#0DE5A8"/>
<path d="M19.2358 154.732C19.2358 154.732 27.0992 159.096 29.6202 162.71C32.1412 166.324 42.0053 171.202 42.0053 171.202" stroke="#282F35" stroke-width="2" stroke-miterlimit="10"/>
<path d="M51.143 170.842C43.9187 178.779 42.3928 189.15 42.3928 189.15C42.3928 189.15 52.5746 186.653 59.7955 178.716C67.0164 170.78 68.5457 160.406 68.5457 160.406C68.5457 160.406 58.3639 162.902 51.143 170.842Z" fill="#0DE5A8"/>
<path d="M68.5457 160.406C68.5457 160.406 59.1391 168.541 56.7472 174.149C54.3554 179.757 42.3928 189.163 42.3928 189.163" stroke="#282F35" stroke-width="2" stroke-miterlimit="10"/>
</g>
<defs>
<linearGradient id="paint0_linear" x1="206.465" y1="225.593" x2="206.465" y2="37.6232" gradientUnits="userSpaceOnUse">
<stop stop-color="#808080" stop-opacity="0.25"/>
<stop offset="0.54" stop-color="#808080" stop-opacity="0.12"/>
<stop offset="1" stop-color="#808080" stop-opacity="0.1"/>
</linearGradient>
<linearGradient id="paint1_linear" x1="64259.2" y1="168801" x2="64259.2" y2="57193.5" gradientUnits="userSpaceOnUse">
<stop stop-color="#808080" stop-opacity="0.25"/>
<stop offset="0.54" stop-color="#808080" stop-opacity="0.12"/>
<stop offset="1" stop-color="#808080" stop-opacity="0.1"/>
</linearGradient>
<clipPath id="clip0">
<rect width="400" height="286.289" fill="white"/>
</clipPath>
</defs>
</svg>
