<svg width="348" height="250" viewBox="0 0 348 250" fill="none" xmlns="http://www.w3.org/2000/svg">
<path d="M0.282091 148.832C0.282091 190.712 25.1792 205.335 55.8913 205.335C86.6034 205.335 111.5 190.712 111.5 148.832C111.5 106.952 55.8913 53.6736 55.8913 53.6736C55.8913 53.6736 0.282091 106.952 0.282091 148.832Z" fill="#F2F2F2"/>
<path d="M57.9168 198.929L57.3474 163.879L33.6454 120.517L57.2581 158.381L57.0021 142.621L40.6666 111.249L56.9342 138.45V138.451L56.474 110.106L38.9817 85.1298L56.4013 105.648L56.1136 53.6738L57.9219 122.479L57.7733 119.64L75.5578 92.4183L58.0583 125.089L59.7156 156.745L59.7647 155.905L80.2671 127.258L59.8271 158.873L60.034 162.832L60.0712 162.892L60.0545 163.217L64.2585 243.532H58.6413L57.9676 202.047L37.5774 170.509L57.9168 198.929Z" fill="#3F3D56"/>
<path d="M104.267 250C61.3363 250 26.534 247.405 26.534 244.204C26.534 241.003 61.3363 238.408 104.267 238.408C147.198 238.408 182 241.003 182 244.204C182 247.405 147.198 250 104.267 250Z" fill="#384047"/>
<path opacity="0.5" d="M245.353 236.408C215.725 236.408 191.706 234.617 191.706 232.408C191.706 230.199 215.725 228.408 245.353 228.408C274.981 228.408 299 230.199 299 232.408C299 234.617 274.981 236.408 245.353 236.408Z" fill="#384047"/>
<path d="M97.1072 0H109.381V245.909H97.1072V0Z" fill="#3F3D56"/>
<path d="M33.5322 234.696C33.5322 242.356 38.0859 245.031 43.7036 245.031C43.8337 245.031 43.9637 245.029 44.0934 245.027C44.3537 245.021 44.6115 245.009 44.8662 244.991C49.9361 244.632 53.875 241.82 53.875 234.696C53.875 227.323 44.4535 218.02 43.7458 217.331L43.7445 217.33C43.7172 217.304 43.7036 217.291 43.7036 217.291C43.7036 217.291 33.5322 227.036 33.5322 234.696Z" fill="#0DE5A8"/>
<path d="M44.0743 243.859L40.3542 238.661L44.0836 244.43L44.0935 245.027C44.3538 245.021 44.6116 245.009 44.8663 244.991L44.4654 237.327L44.4685 237.268L44.4617 237.257L44.4238 236.533L48.1626 230.75L44.4121 235.99L44.4034 236.144L44.1003 230.353L47.3012 224.377L44.0613 229.337L43.7459 217.331L43.7446 217.291V217.33L43.7973 226.797L40.6107 223.044L43.8103 227.613L43.8946 232.797L40.9193 227.821L43.907 233.56L43.9541 236.442L39.6347 229.517L43.9702 237.448L44.0743 243.859Z" fill="#3F3D56"/>
<path d="M123.964 228.961L126.14 227.345C126.14 227.345 127.58 235.39 125.973 236.595C124.366 237.8 118.339 239.809 118.339 242.22C118.339 244.631 104.678 247.845 104.277 244.229C103.875 240.613 105.482 238.604 105.482 238.604C105.482 238.604 111.91 232.176 112.714 230.97C113.518 229.765 115.526 227.354 115.526 227.354L123.964 228.961Z" fill="#2F2E41"/>
<path d="M91.8218 128.918C91.8218 128.918 91.8821 129.272 91.9865 129.919C92.083 130.493 92.2155 131.305 92.3762 132.305C94.0637 142.603 98.9855 172.917 98.652 173.918C98.2502 175.123 95.4378 179.542 98.652 180.748C98.9614 180.864 99.2948 181.242 99.6524 181.837C100.343 183.117 100.912 184.46 101.352 185.846C103.268 191.407 105.318 200.306 106.503 206.47C107.021 209.178 107.375 211.355 107.479 212.496C107.515 212.76 107.519 213.027 107.491 213.292C107.089 214.899 109.902 220.524 111.107 222.131C112.312 223.738 114.321 225.345 113.92 226.952C113.518 228.559 123.964 232.979 125.169 230.166C126.375 227.354 126.375 225.747 126.776 224.943C127.178 224.14 127.58 218.515 125.571 217.711C123.562 216.908 124.768 202.846 122.759 200.033C122.088 199.097 121.063 195.927 119.99 192.114C119.569 190.619 119.143 189.028 118.725 187.433C117.029 180.896 115.527 174.319 115.527 174.319L115.928 127.311L93.8307 124.499L93.2642 125.748L92.1352 128.227L91.8218 128.918Z" fill="#2F2E41"/>
<path d="M90.6163 206.06C90.6163 206.06 87.4021 202.846 85.795 206.06C84.1879 209.274 82.5808 221.729 79.7683 224.542C76.9559 227.354 73.3399 241.416 77.3577 242.22C81.3754 243.023 85.795 241.014 86.1968 238.604C86.5986 236.193 95.0359 223.738 95.0359 222.533C95.0359 221.327 89.411 216.908 89.411 216.908L90.6163 206.06Z" fill="#2F2E41"/>
<path d="M140.035 106.821C140.035 106.821 134.812 153.829 133.606 158.248C132.401 162.668 125.973 179.542 123.964 182.355C121.955 185.167 109.098 208.069 107.491 209.274C105.884 210.479 102.67 213.693 102.67 213.693C102.67 213.693 96.6429 219.72 95.8394 220.925C95.0358 222.131 88.2056 218.515 87.8038 216.104C87.402 213.693 88.2056 209.676 88.6074 208.069C89.0092 206.461 87.8038 204.051 89.0092 202.845C90.2145 201.64 96.2412 195.613 96.2412 192.801C96.2412 189.989 106.687 173.516 110.705 169.9C114.723 166.284 113.919 160.257 113.919 160.257V135.749L91.8216 128.918C91.8216 128.918 93.0269 109.633 95.8394 109.633C98.6518 109.633 135.615 103.205 140.035 106.821Z" fill="#2F2E41"/>
<path d="M107.491 39.7239C100.169 39.7239 94.2324 33.7878 94.2324 26.4652C94.2324 19.1426 100.169 13.2065 107.491 13.2065C114.814 13.2065 120.75 19.1426 120.75 26.4652C120.75 33.7878 114.814 39.7239 107.491 39.7239Z" fill="#9F616A"/>
<path d="M111.911 36.9116C111.911 36.9116 113.518 42.9382 115.527 44.5453C117.535 46.1524 110.303 52.9827 110.303 52.9827L96.643 53.7862L94.2324 46.1524C94.2324 46.1524 98.6519 37.3133 97.4466 31.6884C96.2413 26.0636 111.911 36.9116 111.911 36.9116Z" fill="#9F616A"/>
<path d="M117.535 43.7418C117.535 43.7418 113.919 44.1436 113.116 45.3489C112.312 46.5543 106.687 50.1703 102.268 49.3667C97.8482 48.5632 95.0358 47.3578 94.2322 47.7596C93.4287 48.1614 91.8216 56.5987 91.8216 56.5987L96.2411 69.4556L95.4376 104.812L94.2322 114.455C94.2322 114.455 91.8216 111.24 101.464 113.249C111.107 115.258 123.562 111.642 127.58 111.24C131.598 110.839 138.428 109.633 138.83 107.223C139.231 104.812 137.624 95.9729 137.624 95.9729L131.196 69.0538L127.178 54.5898L117.535 43.7418Z" fill="#3F3D56"/>
<path d="M113.735 41.9283C113.735 41.9283 117.134 40.1257 118.339 41.7328C119.544 43.3399 134.812 45.7506 134.812 46.9559C134.812 48.1613 138.026 80.7052 137.223 83.5177C136.419 86.3302 138.83 89.5444 138.83 89.5444L141.642 101.598C141.642 101.598 149.276 124.499 146.062 125.303C142.847 126.106 140.035 125.303 138.83 125.303C137.624 125.303 138.026 110.035 134.812 106.017C131.598 101.999 127.178 91.955 126.375 89.9461C125.571 87.9372 115.527 60.2146 115.928 57.0004C116.33 53.7861 113.735 41.9283 113.735 41.9283Z" fill="#D0CDE1"/>
<path d="M97.0448 43.7418C97.0448 43.7418 93.8306 43.7418 93.4288 44.5454C93.027 45.3489 89.0092 50.572 87.4021 51.7774C85.795 52.9827 80.1701 58.2058 80.1701 59.4112C80.1701 60.6165 91.8217 69.4556 91.8217 69.4556C91.8217 69.4556 96.643 93.1605 94.2324 101.196C91.8217 109.232 88.2057 128.517 89.8128 129.722C91.4199 130.928 95.0359 131.329 95.0359 129.722C95.0359 128.115 97.4466 110.839 99.4555 107.223C101.464 103.607 107.491 80.7054 105.08 74.2769C102.67 67.8485 97.0448 43.7418 97.0448 43.7418Z" fill="#D0CDE1"/>
<path d="M150.079 83.5178C150.079 83.5178 150.481 95.9729 146.062 102.401C141.642 108.83 138.83 116.062 138.83 116.062C138.83 116.062 131.598 114.053 130.392 111.642C129.187 109.232 121.553 111.24 121.553 110.437C121.553 109.633 130.794 105.616 131.598 104.812C132.401 104.008 135.214 104.008 136.821 102.401C138.428 100.794 138.83 97.1783 138.83 97.1783L140.437 86.732L150.079 83.5178Z" fill="#9F616A"/>
<path d="M116.623 18.2903C117.643 18.1976 118.695 18.0957 119.596 17.6095C121.616 16.5202 122.152 13.4181 120.614 11.7145C120.19 11.2811 119.716 10.8998 119.202 10.5787L116.148 8.5C114.797 7.58062 113.414 6.64618 111.839 6.21277C110.414 5.82077 108.909 5.86105 107.434 5.95273C104.571 6.1307 101.689 6.49832 98.9963 7.48694C96.3031 8.47555 93.7909 10.1295 92.1598 12.4896C89.5739 16.2311 89.5384 21.2771 90.9626 25.5964C92.3868 29.9158 95.0921 33.6771 97.7578 37.3621L99.1409 30.6134C99.2641 30.0123 99.4234 29.3535 99.9233 28.9977C101.166 28.1135 102.686 29.9289 104.211 29.9172C105.191 29.9096 106.013 29.1037 106.385 28.1969C106.756 27.29 106.78 26.2858 106.866 25.3097C107.048 23.2422 107.771 20.3654 109.729 19.2252C111.553 18.1627 114.572 18.4766 116.623 18.2903Z" fill="#2F2E41"/>
<path opacity="0.1" d="M115.879 129.243C115.879 129.243 114.522 168.494 113.719 169.699C112.915 170.904 113.719 129.12 113.719 129.12L115.879 129.243Z" fill="black"/>
<path d="M131.598 46.9559H134.812C134.812 46.9559 148.472 65.4377 146.865 66.643C145.258 67.8484 146.865 71.0626 146.865 71.0626L150.079 77.0892C150.079 77.0892 154.097 80.7052 152.892 81.5088C151.687 82.3124 150.079 85.5266 150.079 85.5266C150.079 85.5266 142.044 84.3212 139.633 89.1426L134.422 82.564L131.598 46.9559Z" fill="#D0CDE1"/>
<path d="M95.0359 81.5088C95.0359 81.5088 103.875 81.9106 113.919 75.4822L123.964 71.0626C123.964 71.0626 132.803 57.4022 133.607 59.8129C134.41 62.2235 132.401 67.0449 132.401 67.0449C132.401 67.0449 144.523 72.6548 144.838 73.3963C145.153 74.1378 138.026 72.268 138.026 72.268C138.026 72.268 139.232 79.9017 132.401 80.3035C125.571 80.7053 123.562 79.0982 123.562 79.0982C123.562 79.0982 94.6342 103.205 89.8128 95.5711C84.9915 87.9373 95.0359 81.5088 95.0359 81.5088Z" fill="#9F616A"/>
<path d="M84.5897 57.804L80.1701 59.4111V71.4644L78.563 73.8751C78.563 73.8751 78.9648 78.6964 80.1701 79.9017C81.3755 81.1071 83.7861 80.7053 82.9826 83.5177C82.4996 85.3513 82.3634 87.259 82.5808 89.1426C82.5808 89.1426 89.8128 98.3835 90.2146 97.1782C90.6164 95.9728 96.2412 81.1071 97.0448 81.1071C97.8483 81.1071 89.0092 57.804 89.0092 57.804H84.5897Z" fill="#D0CDE1"/>
<path d="M137.424 118.673C137.424 118.673 141.578 114.655 139.501 114.455C137.424 114.254 130.192 110.236 128.986 112.245C127.781 114.254 137.424 118.673 137.424 118.673Z" fill="#2F2E41"/>
<path d="M339.662 129.133C339.662 149.874 332.47 169.973 319.312 186.006C306.154 202.039 287.844 213.014 267.502 217.06C247.16 221.106 226.043 217.974 207.752 208.197C189.46 198.42 175.124 182.602 167.187 163.44C159.25 144.278 158.202 122.957 164.223 103.109C170.244 83.261 182.96 66.1148 200.206 54.5917C217.451 43.0687 238.158 37.8818 258.8 39.9148C279.441 41.9477 298.738 51.0748 313.404 65.7409C321.755 74.0463 328.376 83.9255 332.883 94.8068C337.39 105.688 339.694 117.355 339.662 129.133V129.133ZM160.946 129.133C160.946 178.244 200.901 218.199 250.012 218.199C299.123 218.199 339.078 178.244 339.078 129.133C339.078 80.0219 299.123 40.0671 250.012 40.0671C200.901 40.0671 160.946 80.0219 160.946 129.133Z" fill="#9CA0A4"/>
<path fill-rule="evenodd" clip-rule="evenodd" d="M240.989 189.452C246.167 184.274 254.564 184.274 259.743 189.452C264.922 194.631 264.922 203.028 259.743 208.207L250.366 217.584L240.989 208.207C235.81 203.028 235.81 194.631 240.989 189.452ZM243.673 201.716C244.718 200.671 249.347 199.824 249.347 199.824C249.347 199.824 248.5 204.453 247.456 205.498C246.411 206.542 244.718 206.542 243.673 205.498C242.629 204.453 242.629 202.76 243.673 201.716ZM251.373 197.798C251.373 197.798 252.219 193.17 253.264 192.125C254.308 191.081 256.002 191.081 257.046 192.125C258.09 193.169 258.091 194.863 257.046 195.907C256.002 196.952 251.373 197.798 251.373 197.798ZM249.421 205.943C249.038 204.516 250.62 200.084 250.62 200.084C250.62 200.084 254.205 203.132 254.587 204.558C254.969 205.985 254.123 207.452 252.696 207.834C251.27 208.216 249.803 207.37 249.421 205.943ZM249.948 197.691C249.948 197.691 246.363 194.643 245.981 193.216C245.598 191.789 246.445 190.323 247.872 189.941C249.298 189.559 250.765 190.405 251.147 191.832C251.53 193.259 249.948 197.691 249.948 197.691ZM256.039 203.191C254.612 202.809 251.565 199.224 251.565 199.224C251.565 199.224 255.996 197.642 257.423 198.025C258.85 198.407 259.697 199.874 259.314 201.3C258.932 202.727 257.466 203.574 256.039 203.191ZM249.172 198.553C249.172 198.553 244.74 200.134 243.313 199.751C241.886 199.369 241.04 197.902 241.422 196.476C241.804 195.049 243.27 194.203 244.697 194.585C246.124 194.967 249.172 198.553 249.172 198.553Z" fill="#0DE5A8"/>
<path fill-rule="evenodd" clip-rule="evenodd" d="M240.989 68.5208C246.167 73.6996 254.564 73.6996 259.743 68.5208C264.922 63.3419 264.922 54.9453 259.743 49.7664L250.366 40.3892L240.989 49.7664C235.81 54.9453 235.81 63.3419 240.989 68.5208ZM243.673 56.2577C244.718 57.3022 249.347 58.1488 249.347 58.1488C249.347 58.1488 248.5 53.52 247.456 52.4755C246.411 51.431 244.718 51.4313 243.673 52.4755C242.629 53.5198 242.629 55.2132 243.673 56.2577ZM251.373 60.1749C251.373 60.1749 252.219 64.8036 253.264 65.8481C254.308 66.8926 256.002 66.8924 257.046 65.8481C258.09 64.8039 258.091 63.1105 257.046 62.066C256.002 61.0214 251.373 60.1749 251.373 60.1749ZM249.421 52.0304C249.038 53.4573 250.62 57.8892 250.62 57.8892C250.62 57.8892 254.205 54.8416 254.587 53.4148C254.969 51.9879 254.123 50.5216 252.696 50.1393C251.27 49.7571 249.803 50.6036 249.421 52.0304ZM249.948 60.2826C249.948 60.2826 246.363 63.3301 245.981 64.7569C245.598 66.1838 246.445 67.6502 247.872 68.0324C249.298 68.4146 250.765 67.5682 251.147 66.1413C251.53 64.7144 249.948 60.2826 249.948 60.2826ZM256.039 54.7819C254.612 55.1642 251.565 58.7495 251.565 58.7495C251.565 58.7495 255.996 60.3307 257.423 59.9484C258.85 59.5661 259.697 58.0994 259.314 56.6729C258.932 55.2465 257.466 54.3995 256.039 54.7819ZM249.172 59.4207C249.172 59.4207 244.74 57.8395 243.313 58.2218C241.886 58.6041 241.04 60.0708 241.422 61.4973C241.804 62.9237 243.27 63.7707 244.697 63.3884C246.124 63.006 249.172 59.4207 249.172 59.4207Z" fill="#0DE5A8"/>
<path fill-rule="evenodd" clip-rule="evenodd" d="M310.832 138.364C305.653 133.185 305.653 124.788 310.832 119.609C316.01 114.43 324.407 114.43 329.586 119.609L338.963 128.986L329.586 138.364C324.407 143.542 316.01 143.543 310.832 138.364ZM323.094 135.678C322.05 134.634 321.203 130.005 321.203 130.005C321.203 130.005 325.832 130.852 326.877 131.896C327.921 132.941 327.921 134.634 326.877 135.678C325.832 136.723 324.139 136.723 323.094 135.678ZM319.177 127.979C319.177 127.979 314.549 127.132 313.504 126.088C312.459 125.043 312.46 123.35 313.504 122.306C314.548 121.261 316.242 121.261 317.286 122.306C318.331 123.35 319.177 127.979 319.177 127.979ZM327.322 129.931C325.895 130.314 321.463 128.732 321.463 128.732C321.463 128.732 324.51 125.147 325.937 124.765C327.364 124.382 328.831 125.229 329.213 126.656C329.595 128.082 328.749 129.549 327.322 129.931ZM319.07 129.403C319.07 129.403 316.022 132.989 314.595 133.371C313.168 133.753 311.702 132.906 311.32 131.48C310.937 130.054 311.784 128.587 313.211 128.205C314.638 127.822 319.07 129.403 319.07 129.403ZM324.57 123.313C324.188 124.74 320.602 127.787 320.602 127.787C320.602 127.787 319.021 123.355 319.404 121.928C319.786 120.501 321.253 119.655 322.679 120.037C324.105 120.419 324.952 121.886 324.57 123.313ZM319.931 130.18C319.931 130.18 321.513 134.612 321.13 136.039C320.748 137.466 319.281 138.313 317.855 137.93C316.428 137.548 315.581 136.082 315.964 134.655C316.346 133.228 319.931 130.18 319.931 130.18Z" fill="#0DE5A8"/>
<path fill-rule="evenodd" clip-rule="evenodd" d="M189.9 138.364C195.079 133.185 195.079 124.788 189.9 119.609C184.721 114.43 176.324 114.43 171.145 119.609L161.768 128.986L171.145 138.364C176.324 143.543 184.721 143.543 189.9 138.364ZM177.637 135.678C178.681 134.634 179.528 130.005 179.528 130.005C179.528 130.005 174.899 130.852 173.855 131.896C172.81 132.941 172.81 134.634 173.855 135.678C174.899 136.723 176.592 136.723 177.637 135.678ZM181.554 127.979C181.554 127.979 186.183 127.132 187.227 126.088C188.272 125.043 188.271 123.35 187.227 122.306C186.183 121.261 184.49 121.261 183.445 122.306C182.401 123.35 181.554 127.979 181.554 127.979ZM173.41 129.931C174.836 130.314 179.268 128.732 179.268 128.732C179.268 128.732 176.221 125.147 174.794 124.765C173.367 124.382 171.901 125.229 171.518 126.656C171.136 128.082 171.983 129.549 173.41 129.931ZM181.662 129.403C181.662 129.403 184.709 132.989 186.136 133.371C187.563 133.753 189.029 132.906 189.412 131.48C189.794 130.054 188.947 128.587 187.52 128.205C186.094 127.822 181.662 129.403 181.662 129.403ZM176.161 123.313C176.543 124.74 180.129 127.787 180.129 127.787C180.129 127.787 181.71 123.355 181.328 121.928C180.945 120.501 179.479 119.655 178.052 120.037C176.626 120.419 175.779 121.886 176.161 123.313ZM180.8 130.18C180.8 130.18 179.219 134.612 179.601 136.039C179.983 137.466 181.45 138.313 182.876 137.93C184.303 137.548 185.15 136.082 184.767 134.655C184.385 133.228 180.8 130.18 180.8 130.18Z" fill="#0DE5A8"/>
<g clip-path="url(#clip0)">
<path d="M231.602 126.053C231.506 129.055 233.007 130.385 233.044 131.229C233.026 131.401 232.967 131.566 232.873 131.711C232.778 131.855 232.651 131.975 232.5 132.06L230.804 133.248C230.584 133.402 230.325 133.49 230.057 133.502C230 133.5 228.972 133.745 227.343 130.108C226.349 131.348 225.084 132.345 223.646 133.022C222.207 133.698 220.633 134.037 219.044 134.011C216.886 134.129 211.038 132.787 211.339 126.561C211.128 121.487 215.853 118.335 220.74 118.601C221.682 118.604 223.603 118.65 226.969 119.432V117.362C227.325 113.855 225.02 111.133 221.029 111.542C220.711 111.543 218.458 111.475 214.953 112.882C213.978 113.33 213.853 113.255 213.528 113.255C212.546 113.255 212.95 110.408 213.139 110.048C213.829 109.199 217.892 107.615 221.879 107.638C224.545 107.402 227.197 108.225 229.261 109.928C230.1 110.867 230.74 111.966 231.142 113.159C231.545 114.352 231.702 115.614 231.603 116.869L231.602 126.053V126.053ZM220.147 130.346C224.445 130.284 226.265 127.699 226.68 126.308C227.006 124.975 226.952 124.132 226.952 122.676C225.67 122.368 223.825 122.033 221.708 122.03C219.7 121.879 216.032 122.776 216.175 126.306C216.011 128.532 217.649 130.468 220.147 130.346V130.346ZM242.802 133.402C241.76 133.497 241.275 132.757 241.121 132.027L234.52 110.203C234.392 109.834 234.307 109.454 234.266 109.066C234.241 108.905 234.282 108.742 234.378 108.612C234.473 108.481 234.617 108.394 234.777 108.37C234.809 108.364 234.495 108.37 237.727 108.37C238.89 108.253 239.27 109.169 239.39 109.744L244.125 128.411L248.52 109.744C248.59 109.317 248.91 108.277 250.217 108.387H252.491C252.779 108.363 253.964 108.321 254.172 109.761L258.602 128.667L263.489 109.761C263.553 109.472 263.849 108.254 265.17 108.387H267.784C267.896 108.37 268.599 108.28 268.479 109.524C268.422 109.769 268.931 108.111 261.487 132.044C261.335 132.775 260.849 133.514 259.807 133.419H257.329C255.879 133.571 255.671 132.138 255.649 131.994L251.253 113.817L246.908 131.975C246.887 132.12 246.679 133.553 245.228 133.4H242.802V133.402ZM279.052 134.148C278.272 134.149 274.556 134.108 271.449 132.519C271.139 132.388 270.875 132.168 270.691 131.887C270.507 131.606 270.41 131.276 270.413 130.94V129.515C270.413 128.395 271.235 128.601 271.584 128.735C272.915 129.273 273.768 129.681 275.403 130.007C280.26 131.005 282.397 129.702 282.921 129.413C284.664 128.378 284.802 126.009 283.617 124.781C282.227 123.615 281.565 123.572 276.574 121.997C275.959 121.826 270.782 120.193 270.77 115.057C270.689 111.314 274.09 107.61 279.985 107.641C281.664 107.639 286.139 108.188 287.351 109.711C287.529 109.988 287.618 110.314 287.605 110.644V111.984C287.605 112.573 287.39 112.867 286.959 112.867C285.938 112.753 284.124 111.386 280.443 111.442C279.53 111.394 275.156 111.563 275.352 114.752C275.295 117.265 278.879 118.207 279.289 118.316C284.122 119.77 285.737 120.011 287.655 122.237C289.927 125.186 288.703 128.639 288.232 129.585C285.703 134.555 279.163 134.15 279.052 134.148V134.148ZM284.38 148.047C275.098 154.902 261.623 158.552 250.117 158.552C234.593 158.654 219.592 152.946 208.063 142.549C207.198 141.768 207.961 140.698 209.014 141.294C221.803 148.609 236.283 152.453 251.016 152.444C262.019 152.385 272.901 150.153 283.039 145.876C284.6 145.213 285.924 146.91 284.38 148.047V148.047ZM288.249 143.634C287.062 142.107 280.392 142.921 277.405 143.278C276.505 143.38 276.353 142.599 277.168 142.023C282.479 138.289 291.202 139.358 292.204 140.614C293.205 141.869 291.933 150.609 286.961 154.784C286.197 155.43 285.467 155.089 285.806 154.241C286.925 151.424 289.437 145.163 288.249 143.634Z" fill="#0DE5A8"/>
</g>
<defs>
<clipPath id="clip0">
<rect width="84.8317" height="67.8653" fill="white" transform="translate(207.688 99.1443)"/>
</clipPath>
</defs>
</svg>
