<svg width="390" height="250" viewBox="0 0 390 250" fill="none" xmlns="http://www.w3.org/2000/svg">
<path d="M0.485153 0.539596H389.681V249.681H0.485153V0.539596Z" fill="#50585F" stroke="#0DE5A8" stroke-width="0.637298"/>
<path d="M389.834 0H0V16.569H389.834V0Z" fill="#0DE5A8"/>
<path d="M12.3074 11.5419C14.0026 11.5419 15.3769 10.167 15.3769 8.47096C15.3769 6.77493 14.0026 5.40002 12.3074 5.40002C10.6121 5.40002 9.23779 6.77493 9.23779 8.47096C9.23779 10.167 10.6121 11.5419 12.3074 11.5419Z" fill="white"/>
<path d="M23.9585 11.5419C25.6537 11.5419 27.028 10.167 27.028 8.47096C27.028 6.77493 25.6537 5.40002 23.9585 5.40002C22.2632 5.40002 20.8889 6.77493 20.8889 8.47096C20.8889 10.167 22.2632 11.5419 23.9585 11.5419Z" fill="white"/>
<path d="M35.6098 11.5419C37.3051 11.5419 38.6794 10.167 38.6794 8.47096C38.6794 6.77493 37.3051 5.40002 35.6098 5.40002C33.9146 5.40002 32.5403 6.77493 32.5403 8.47096C32.5403 10.167 33.9146 11.5419 35.6098 11.5419Z" fill="white"/>
<path d="M191.975 50.6263H72.3161C72.0607 50.5926 71.8262 50.4672 71.6563 50.2734C71.4865 50.0796 71.3928 49.8306 71.3928 49.5728C71.3928 49.3151 71.4865 49.0661 71.6563 48.8723C71.8262 48.6785 72.0607 48.5531 72.3161 48.5194H191.975C192.23 48.5531 192.465 48.6785 192.635 48.8723C192.805 49.0661 192.898 49.3151 192.898 49.5728C192.898 49.8306 192.805 50.0796 192.635 50.2734C192.465 50.4672 192.23 50.5926 191.975 50.6263V50.6263Z" fill="#CCCCCC"/>
<path d="M109.064 62.2141H32.9843C32.7289 62.1804 32.4944 62.0549 32.3245 61.8611C32.1547 61.6673 32.061 61.4184 32.061 61.1606C32.061 60.9029 32.1547 60.6539 32.3245 60.4601C32.4944 60.2663 32.7289 60.1409 32.9843 60.1072H109.064C109.319 60.1409 109.554 60.2663 109.723 60.4601C109.893 60.6539 109.987 60.9029 109.987 61.1606C109.987 61.4184 109.893 61.6673 109.723 61.8611C109.554 62.0549 109.319 62.1804 109.064 62.2141V62.2141Z" fill="#CCCCCC"/>
<path d="M191.975 62.4247H115.896C115.64 62.391 115.406 62.2656 115.236 62.0718C115.066 61.878 114.972 61.6291 114.972 61.3713C114.972 61.1135 115.066 60.8646 115.236 60.6708C115.406 60.477 115.64 60.3516 115.896 60.3179H191.975C192.231 60.3516 192.465 60.477 192.635 60.6708C192.805 60.8646 192.898 61.1135 192.898 61.3713C192.898 61.6291 192.805 61.878 192.635 62.0718C192.465 62.2656 192.231 62.391 191.975 62.4247H191.975Z" fill="#CCCCCC"/>
<path d="M109.248 73.8018H33.1691C32.9137 73.7681 32.6792 73.6427 32.5094 73.4489C32.3395 73.2551 32.2458 73.0061 32.2458 72.7484C32.2458 72.4906 32.3395 72.2417 32.5094 72.0478C32.6792 71.854 32.9137 71.7286 33.1691 71.6949H109.248C109.504 71.7286 109.738 71.854 109.908 72.0478C110.078 72.2417 110.172 72.4906 110.172 72.7484C110.172 73.0061 110.078 73.2551 109.908 73.4489C109.738 73.6427 109.504 73.7681 109.248 73.8018V73.8018Z" fill="#CCCCCC"/>
<path d="M109.433 85.3896H33.3537C33.0983 85.3559 32.8638 85.2305 32.6939 85.0367C32.5241 84.8429 32.4304 84.5939 32.4304 84.3361C32.4304 84.0784 32.5241 83.8294 32.6939 83.6356C32.8638 83.4418 33.0983 83.3164 33.3537 83.2827H109.433C109.688 83.3164 109.923 83.4418 110.093 83.6356C110.263 83.8294 110.356 84.0784 110.356 84.3361C110.356 84.5939 110.263 84.8429 110.093 85.0367C109.923 85.2305 109.688 85.3559 109.433 85.3896V85.3896Z" fill="#CCCCCC"/>
<path d="M143.964 73.8018H122.174C121.919 73.7681 121.684 73.6427 121.514 73.4489C121.344 73.2551 121.251 73.0061 121.251 72.7484C121.251 72.4906 121.344 72.2417 121.514 72.0478C121.684 71.854 121.919 71.7286 122.174 71.6949H143.964C144.219 71.7286 144.454 71.854 144.623 72.0478C144.793 72.2417 144.887 72.4906 144.887 72.7484C144.887 73.0061 144.793 73.2551 144.623 73.4489C144.454 73.6427 144.219 73.7681 143.964 73.8018V73.8018Z" fill="#CCCCCC"/>
<path d="M143.964 85.1789H122.174C121.919 85.1452 121.684 85.0198 121.514 84.826C121.344 84.6322 121.251 84.3832 121.251 84.1255C121.251 83.8677 121.344 83.6187 121.514 83.4249C121.684 83.2311 121.919 83.1057 122.174 83.072H143.964C144.219 83.1057 144.454 83.2311 144.623 83.4249C144.793 83.6187 144.887 83.8677 144.887 84.1255C144.887 84.3832 144.793 84.6322 144.623 84.826C144.454 85.0198 144.219 85.1452 143.964 85.1789V85.1789Z" fill="#CCCCCC"/>
<path d="M180.526 85.1789H158.737C158.481 85.1452 158.247 85.0198 158.077 84.826C157.907 84.6322 157.813 84.3832 157.813 84.1255C157.813 83.8677 157.907 83.6187 158.077 83.4249C158.247 83.2311 158.481 83.1057 158.737 83.072H180.526C180.782 83.1057 181.016 83.2311 181.186 83.4249C181.356 83.6187 181.45 83.8677 181.45 84.1255C181.45 84.3832 181.356 84.6322 181.186 84.826C181.016 85.0198 180.782 85.1452 180.526 85.1789V85.1789Z" fill="#CCCCCC"/>
<path d="M54.2196 50.6263H32.4299C32.1745 50.5926 31.94 50.4672 31.7701 50.2734C31.6002 50.0796 31.5066 49.8306 31.5066 49.5728C31.5066 49.3151 31.6002 49.0661 31.7701 48.8723C31.94 48.6785 32.1745 48.5531 32.4299 48.5194H54.2196C54.4751 48.5531 54.7095 48.6785 54.8794 48.8723C55.0493 49.0661 55.1429 49.3151 55.1429 49.5728C55.1429 49.8306 55.0493 50.0796 54.8794 50.2734C54.7095 50.4672 54.4751 50.5926 54.2196 50.6263Z" fill="#CCCCCC"/>
<path d="M108.787 113.329H32.7072C32.4518 113.295 32.2173 113.17 32.0475 112.976C31.8776 112.782 31.7839 112.533 31.7839 112.275C31.7839 112.018 31.8776 111.769 32.0475 111.575C32.2173 111.381 32.4518 111.256 32.7072 111.222H108.787C109.042 111.256 109.277 111.381 109.446 111.575C109.616 111.769 109.71 112.018 109.71 112.275C109.71 112.533 109.616 112.782 109.446 112.976C109.277 113.17 109.042 113.295 108.787 113.329H108.787Z" fill="#CCCCCC"/>
<path d="M108.417 136.504H32.3376C32.0822 136.471 31.8477 136.345 31.6778 136.151C31.508 135.958 31.4143 135.709 31.4143 135.451C31.4143 135.193 31.508 134.944 31.6778 134.75C31.8477 134.557 32.0822 134.431 32.3376 134.397H108.417C108.672 134.431 108.907 134.557 109.077 134.75C109.247 134.944 109.34 135.193 109.34 135.451C109.34 135.709 109.247 135.958 109.077 136.151C108.907 136.345 108.672 136.471 108.417 136.504H108.417Z" fill="#CCCCCC"/>
<path d="M108.602 148.092H32.5224C32.267 148.058 32.0325 147.933 31.8626 147.739C31.6928 147.545 31.5991 147.296 31.5991 147.038C31.5991 146.781 31.6928 146.532 31.8626 146.338C32.0325 146.144 32.267 146.019 32.5224 145.985H108.602C108.857 146.019 109.092 146.144 109.262 146.338C109.431 146.532 109.525 146.781 109.525 147.038C109.525 147.296 109.431 147.545 109.262 147.739C109.092 147.933 108.857 148.058 108.602 148.092H108.602Z" fill="#CCCCCC"/>
<path d="M141.101 136.715H119.312C119.056 136.681 118.822 136.556 118.652 136.362C118.482 136.168 118.388 135.919 118.388 135.662C118.388 135.404 118.482 135.155 118.652 134.961C118.822 134.767 119.056 134.642 119.312 134.608H141.101C141.357 134.642 141.591 134.767 141.761 134.961C141.931 135.155 142.025 135.404 142.025 135.662C142.025 135.919 141.931 136.168 141.761 136.362C141.591 136.556 141.357 136.681 141.101 136.715V136.715Z" fill="#CCCCCC"/>
<path d="M141.101 148.092H119.312C119.056 148.058 118.822 147.933 118.652 147.739C118.482 147.545 118.388 147.296 118.388 147.038C118.388 146.781 118.482 146.532 118.652 146.338C118.822 146.144 119.056 146.019 119.312 145.985H141.101C141.357 146.019 141.591 146.144 141.761 146.338C141.931 146.532 142.025 146.781 142.025 147.038C142.025 147.296 141.931 147.545 141.761 147.739C141.591 147.933 141.357 148.058 141.101 148.092V148.092Z" fill="#CCCCCC"/>
<path d="M177.664 136.715H155.874C155.619 136.681 155.384 136.556 155.214 136.362C155.045 136.168 154.951 135.919 154.951 135.662C154.951 135.404 155.045 135.155 155.214 134.961C155.384 134.767 155.619 134.642 155.874 134.608H177.664C177.919 134.642 178.154 134.767 178.324 134.961C178.494 135.155 178.587 135.404 178.587 135.662C178.587 135.919 178.494 136.168 178.324 136.362C178.154 136.556 177.919 136.681 177.664 136.715V136.715Z" fill="#CCCCCC"/>
<path d="M192.067 124.917H72.4086C72.1532 124.883 71.9187 124.757 71.7489 124.564C71.579 124.37 71.4854 124.121 71.4854 123.863C71.4854 123.605 71.579 123.356 71.7489 123.163C71.9187 122.969 72.1532 122.843 72.4086 122.81H192.067C192.323 122.843 192.557 122.969 192.727 123.163C192.897 123.356 192.991 123.605 192.991 123.863C192.991 124.121 192.897 124.37 192.727 124.564C192.557 124.757 192.323 124.883 192.067 124.917V124.917Z" fill="#CCCCCC"/>
<path d="M54.3121 124.917H32.5224C32.267 124.883 32.0325 124.757 31.8626 124.564C31.6928 124.37 31.5991 124.121 31.5991 123.863C31.5991 123.605 31.6928 123.356 31.8626 123.163C32.0325 122.969 32.267 122.843 32.5224 122.81H54.3121C54.5675 122.843 54.802 122.969 54.9719 123.163C55.1418 123.356 55.2354 123.605 55.2354 123.863C55.2354 124.121 55.1418 124.37 54.9719 124.564C54.802 124.757 54.5675 124.883 54.3121 124.917V124.917Z" fill="#CCCCCC"/>
</svg>
