<svg width="886" height="490" viewBox="0 0 886 490" fill="none" xmlns="http://www.w3.org/2000/svg">
<g clip-path="url(#clip0)">
<path d="M424.399 348.37H485.584V350.344H476.042V369.094H474.068V350.344H436.902V369.094H434.928V350.344H424.399V348.37Z" fill="#384047"/>
<path d="M401.701 300.014H417.491V315.803H410.171V369.007H408.197V315.803H401.701V300.014Z" fill="#384047"/>
<path d="M424.278 342.465H485.464V344.439H424.278V342.465Z" fill="#384047"/>
<path d="M424.278 337.531H485.464V339.504H424.278V337.531Z" fill="#384047"/>
<path d="M424.278 332.596H485.464V334.57H424.278V332.596Z" fill="#384047"/>
<path d="M267.488 374.783H269.462C269.462 281.187 345.607 205.043 439.202 205.043C532.797 205.043 608.942 281.187 608.942 374.783H610.915C610.915 280.099 533.885 203.069 439.202 203.069C344.518 203.069 267.488 280.099 267.488 374.783Z" fill="#384047"/>
<path d="M724.648 322.704C635.536 322.704 563.296 250.464 563.296 161.352C563.296 72.2397 635.536 0 724.648 0C813.76 0 886 72.2397 886 161.352C886 250.464 813.76 322.704 724.648 322.704Z" fill="#0DE5A8"/>
<path opacity="0.2" d="M604.625 53.5815C589.574 88.7873 587.533 128.198 598.864 164.77C610.196 201.343 634.164 232.694 666.483 253.223C698.803 273.751 737.369 282.118 775.29 276.829C813.211 271.54 848.015 252.94 873.484 224.351C864.291 245.861 850.53 265.114 833.157 280.777C815.783 296.441 795.212 308.139 772.868 315.063C750.524 321.987 726.943 323.97 703.756 320.875C680.57 317.78 658.334 309.682 638.589 297.14C618.843 284.598 602.06 267.914 589.403 248.242C576.746 228.57 568.517 206.382 565.286 183.214C562.055 160.047 563.9 136.454 570.693 114.07C577.486 91.686 589.064 71.0465 604.625 53.5815Z" fill="black"/>
<path d="M724.205 161.352H723.762L715.783 618.811H732.627L724.205 161.352Z" fill="#384047"/>
<path d="M694.826 410.527L698.543 403.467L725.215 417.509L721.498 424.569L694.826 410.527Z" fill="#384047"/>
<path d="M130.724 360.4C58.5987 360.4 0.130066 301.931 0.130066 229.806C0.130066 157.682 58.5987 99.2128 130.724 99.2128C202.848 99.2128 261.317 157.682 261.317 229.806C261.317 301.931 202.848 360.4 130.724 360.4Z" fill="#0DE5A8"/>
<path opacity="0.2" d="M33.58 142.58C21.3985 171.075 19.746 202.972 28.9177 232.573C38.0895 262.174 57.4879 287.549 83.6464 304.164C109.805 320.779 141.019 327.551 171.711 323.27C202.403 318.99 230.573 303.935 251.187 280.796C243.746 298.205 232.609 313.788 218.547 326.466C204.485 339.143 187.836 348.612 169.751 354.216C151.667 359.82 132.58 361.425 113.814 358.92C95.048 356.415 77.0507 349.86 61.0693 339.709C45.0878 329.559 31.5043 316.054 21.2599 300.133C11.0156 284.211 4.35524 266.253 1.74042 247.501C-0.874405 228.75 0.618881 209.655 6.11664 191.538C11.6144 173.421 20.9852 156.716 33.58 142.58Z" fill="black"/>
<path d="M130.365 229.806H130.006L123.548 600.06H137.181L130.365 229.806Z" fill="#384047"/>
<path d="M106.586 431.482L109.594 425.767L131.182 437.133L128.174 442.847L106.586 431.482Z" fill="#384047"/>
<path d="M516.093 342.262C504.739 342.262 495.534 333.058 495.534 321.704C495.534 310.35 504.739 301.145 516.093 301.145C527.447 301.145 536.651 310.35 536.651 321.704C536.651 333.058 527.447 342.262 516.093 342.262Z" fill="#0DE5A8"/>
<path opacity="0.2" d="M500.8 307.972C498.882 312.458 498.622 317.479 500.066 322.139C501.51 326.799 504.564 330.794 508.682 333.409C512.8 336.025 517.713 337.091 522.545 336.417C527.377 335.743 531.811 333.373 535.056 329.731C533.885 332.471 532.132 334.924 529.918 336.92C527.705 338.916 525.083 340.406 522.237 341.289C519.39 342.171 516.385 342.423 513.431 342.029C510.477 341.635 507.643 340.603 505.127 339.005C502.612 337.407 500.473 335.281 498.861 332.775C497.248 330.268 496.199 327.441 495.788 324.489C495.376 321.537 495.611 318.531 496.477 315.679C497.342 312.827 498.817 310.198 500.8 307.972Z" fill="black"/>
<path d="M516.036 321.704H515.98L514.963 379.99H517.109L516.036 321.704Z" fill="#384047"/>
<path d="M512.293 353.452L512.767 352.553L516.165 354.342L515.691 355.241L512.293 353.452Z" fill="#384047"/>
<path d="M326.122 308.074C297.054 308.074 273.491 284.511 273.491 255.443C273.491 226.375 297.054 202.812 326.122 202.812C355.19 202.812 378.753 226.375 378.753 255.443C378.753 284.511 355.19 308.074 326.122 308.074Z" fill="#0DE5A8"/>
<path opacity="0.2" d="M286.971 220.289C282.062 231.773 281.396 244.628 285.092 256.558C288.789 268.488 296.607 278.714 307.149 285.41C317.691 292.107 330.271 294.836 342.641 293.111C355.01 291.385 366.363 285.318 374.671 275.993C371.672 283.009 367.184 289.289 361.516 294.399C355.849 299.508 349.139 303.324 341.851 305.582C334.563 307.841 326.87 308.488 319.307 307.478C311.744 306.469 304.491 303.827 298.05 299.736C291.609 295.645 286.135 290.203 282.006 283.786C277.878 277.369 275.193 270.132 274.139 262.574C273.086 255.017 273.688 247.322 275.903 240.02C278.119 232.719 281.896 225.986 286.971 220.289Z" fill="black"/>
<path d="M325.977 255.443H325.833L323.23 404.662H328.725L325.977 255.443Z" fill="#384047"/>
<path d="M316.394 336.722L317.607 334.419L326.307 338.999L325.094 341.302L316.394 336.722Z" fill="#384047"/>
<path d="M490.395 452.987C490.395 452.987 489.854 441.645 478.758 442.963L490.395 452.987Z" fill="#384047"/>
<path d="M493.53 442.194C490.463 442.194 487.977 439.707 487.977 436.64C487.977 433.573 490.463 431.087 493.53 431.087C496.597 431.087 499.084 433.573 499.084 436.64C499.084 439.707 496.597 442.194 493.53 442.194Z" fill="#0DE5A8"/>
<path d="M492.866 445.992H494.434V456.965H492.866V445.992Z" fill="#384047"/>
<path d="M273.286 417.46C273.286 417.46 272.744 406.118 261.648 407.436L273.286 417.46Z" fill="#384047"/>
<path d="M276.421 406.667C273.354 406.667 270.867 404.18 270.867 401.113C270.867 398.046 273.354 395.56 276.421 395.56C279.488 395.56 281.974 398.046 281.974 401.113C281.974 404.18 279.488 406.667 276.421 406.667Z" fill="#0DE5A8"/>
<path d="M275.757 410.465H277.324V421.438H275.757V410.465Z" fill="#384047"/>
<path d="M480.526 482.593C480.526 482.593 479.985 471.251 468.889 472.569L480.526 482.593Z" fill="#384047"/>
<path d="M483.662 471.8C480.595 471.8 478.108 469.313 478.108 466.246C478.108 463.179 480.595 460.693 483.662 460.693C486.729 460.693 489.215 463.179 489.215 466.246C489.215 469.313 486.729 471.8 483.662 471.8Z" fill="#0DE5A8"/>
<path d="M482.998 475.598H484.565V486.571H482.998V475.598Z" fill="#384047"/>
<path d="M507.346 493.511C504.279 493.511 501.793 491.024 501.793 487.957C501.793 484.89 504.279 482.404 507.346 482.404C510.413 482.404 512.9 484.89 512.9 487.957C512.9 491.024 510.413 493.511 507.346 493.511Z" fill="#0DE5A8"/>
<path d="M239.732 436.21C239.732 436.21 239.191 424.869 228.095 426.187L239.732 436.21Z" fill="#384047"/>
<path d="M242.868 425.417C239.8 425.417 237.314 422.931 237.314 419.864C237.314 416.797 239.8 414.31 242.868 414.31C245.935 414.31 248.421 416.797 248.421 419.864C248.421 422.931 245.935 425.417 242.868 425.417Z" fill="#0DE5A8"/>
<path d="M242.204 429.215H243.771V440.189H242.204V429.215Z" fill="#384047"/>
<path d="M559.475 460.882C559.475 460.882 558.934 449.54 547.838 450.858L559.475 460.882Z" fill="#384047"/>
<path d="M562.611 450.089C559.543 450.089 557.057 447.602 557.057 444.535C557.057 441.468 559.543 438.982 562.611 438.982C565.678 438.982 568.164 441.468 568.164 444.535C568.164 447.602 565.678 450.089 562.611 450.089Z" fill="#0DE5A8"/>
<path d="M561.947 453.887H563.514V464.86H561.947V453.887Z" fill="#384047"/>
<path d="M302.891 404.631C302.891 404.631 302.35 393.289 291.254 394.607L302.891 404.631Z" fill="#384047"/>
<path d="M306.027 393.838C302.96 393.838 300.473 391.351 300.473 388.284C300.473 385.217 302.96 382.731 306.027 382.731C309.094 382.731 311.58 385.217 311.58 388.284C311.58 391.351 309.094 393.838 306.027 393.838Z" fill="#0DE5A8"/>
<path d="M305.363 397.636H306.93V408.609H305.363V397.636Z" fill="#384047"/>
<path d="M762.974 622.485C762.974 622.485 452.112 540.575 455.073 456.692C460.501 433.501 498.001 427.58 498.001 427.58C498.001 427.58 586.819 415.737 538.463 387.118C490.107 358.499 357.867 365.407 357.867 365.407C357.867 365.407 494.054 387.118 433.855 398.961C385.499 401.921 323.327 414.75 323.327 414.75C323.327 414.75 197.009 441.396 179.245 506.529C161.482 571.661 176.285 621.991 176.285 621.991L762.974 622.485Z" fill="#C2C4C6"/>
<path d="M409.882 612.13L411.089 610.537C407.858 608.089 404.675 605.628 401.629 603.219L400.389 604.788C403.446 607.205 406.64 609.675 409.882 612.13ZM391.059 597.231L392.336 595.692C389.209 593.093 386.15 590.482 383.246 587.931L381.925 589.433C384.843 591.997 387.917 594.621 391.059 597.231ZM373.027 581.362L374.396 579.903C371.411 577.103 368.533 574.3 365.841 571.571L364.418 572.975C367.127 575.722 370.024 578.545 373.027 581.362ZM356.168 564.221L357.657 562.885C354.915 559.831 352.321 556.771 349.948 553.793L348.383 555.039C350.781 558.047 353.4 561.137 356.168 564.221ZM341.215 545.354L342.868 544.227C340.543 540.82 338.445 537.419 336.633 534.118L334.879 535.081C336.722 538.437 338.854 541.894 341.215 545.354ZM329.715 524.14L331.577 523.41C330.127 519.75 328.991 515.973 328.181 512.12L326.222 512.522C327.054 516.487 328.223 520.374 329.715 524.14V524.14ZM327.046 500.444C327.105 496.557 327.645 492.692 328.654 488.937L326.722 488.416C325.671 492.33 325.108 496.359 325.046 500.411L327.046 500.444ZM333.029 478.141C334.928 474.711 337.158 471.475 339.685 468.477L338.152 467.194C335.54 470.291 333.237 473.636 331.275 477.18L333.029 478.141ZM347.949 460.037C350.921 457.419 354.034 454.966 357.275 452.689L356.121 451.056C352.82 453.375 349.649 455.874 346.623 458.541L347.949 460.037ZM367.297 446.253C370.569 444.33 374.098 442.411 377.785 440.549L376.884 438.764C373.159 440.644 369.592 442.584 366.284 444.528L367.297 446.253ZM388.594 435.438C392.076 433.891 395.784 432.335 399.616 430.81L398.876 428.953C395.02 430.486 391.288 432.053 387.782 433.61L388.594 435.438ZM410.83 426.559C414.393 425.267 418.203 423.941 422.151 422.618L421.516 420.721C417.552 422.05 413.727 423.381 410.148 424.678L410.83 426.559ZM433.561 418.913C437.046 417.813 440.798 416.656 445.032 415.374L444.452 413.46C440.211 414.744 436.452 415.904 432.96 417.004L433.561 418.913ZM456.54 411.919C460.586 410.709 464.443 409.553 468.055 408.441L467.466 406.529C463.859 407.641 460.008 408.795 455.967 410.003L456.54 411.919ZM479.524 404.732C483.371 403.462 487.134 401.948 490.788 400.198L489.889 398.411C486.314 400.121 482.634 401.601 478.87 402.841L479.524 404.732ZM494.627 391.622L496.053 390.219C494.23 388.367 490.623 386.554 485.027 384.677L484.392 386.574C489.608 388.323 493.052 390.022 494.627 391.622L494.627 391.622ZM472.95 383.316L473.434 381.375C469.975 380.513 466.034 379.612 461.722 378.696L461.307 380.653C465.596 381.563 469.514 382.46 472.95 383.316V383.316ZM449.581 378.297L449.956 376.333C446.271 375.628 442.302 374.899 438.159 374.165L437.809 376.133C441.944 376.867 445.904 377.594 449.581 378.297V378.297ZM426.011 374.102L426.341 372.129C422.573 371.498 418.629 370.852 414.51 370.191L414.194 372.166C418.309 372.826 422.248 373.471 426.011 374.102Z" fill="white"/>
<path d="M402.134 370.267L402.441 368.291C400.497 367.99 398.518 367.686 396.505 367.379L396.205 369.356C398.216 369.663 400.193 369.966 402.134 370.267Z" fill="white"/>
<path d="M357.871 167.119L348.786 159.853C355.844 159.074 358.744 162.923 359.93 165.97C365.444 163.68 371.446 166.681 371.446 166.681L353.269 173.279C354.186 170.83 355.783 168.693 357.871 167.119Z" fill="#384047"/>
<path d="M526.624 223.37L517.54 216.104C524.597 215.325 527.497 219.174 528.684 222.221C534.197 219.931 540.199 222.932 540.199 222.932L522.023 229.531C522.94 227.081 524.536 224.944 526.624 223.37Z" fill="#384047"/>
<path d="M482.215 106.92L473.131 99.6542C480.188 98.8755 483.088 102.725 484.275 105.771C489.789 103.482 495.791 106.482 495.791 106.482L477.614 113.081C478.531 110.632 480.127 108.495 482.215 106.92Z" fill="#384047"/>
<path d="M383.456 430.442C383.456 430.442 391.325 430.442 392.199 435.25C393.073 440.059 394.385 492.518 393.511 499.075C392.636 505.632 392.636 504.321 392.636 504.321C392.636 504.321 394.379 516.782 390.448 517.327C386.516 517.872 386.516 503.009 386.516 503.009L383.456 449.677V430.442Z" fill="#9E616A"/>
<path d="M349.358 430.442C349.358 430.442 341.489 430.442 340.615 435.25C339.741 440.059 338.429 492.518 339.304 499.075C340.178 505.632 340.178 504.321 340.178 504.321C340.178 504.321 338.435 516.782 342.366 517.327C346.298 517.872 346.298 503.009 346.298 503.009L349.358 449.677V430.442Z" fill="#9E616A"/>
<path d="M369.904 420.387C363.627 420.387 358.538 415.299 358.538 409.021C358.538 402.744 363.627 397.655 369.904 397.655C376.182 397.655 381.27 402.744 381.27 409.021C381.27 415.299 376.182 420.387 369.904 420.387Z" fill="#9E616A"/>
<path d="M372.527 415.141C372.527 415.141 373.839 429.567 375.587 430.879C377.336 432.19 357.227 430.005 357.227 430.005C357.227 430.005 364.221 419.513 362.91 416.016C361.598 412.519 372.527 415.141 372.527 415.141Z" fill="#9E616A"/>
<path d="M346.735 430.442C346.735 430.442 370.779 420.387 386.516 430.442C386.516 430.442 390.45 440.496 387.39 446.179C384.33 451.862 379.522 465.414 384.33 474.594C389.139 483.774 383.893 479.84 383.893 479.84C383.893 479.84 390.013 504.321 390.888 523.555C391.762 542.79 388.265 611.86 385.642 612.297C383.019 612.734 374.713 613.609 373.839 612.297C372.964 610.986 366.844 519.621 366.844 519.621C366.844 519.621 364.221 613.172 361.598 613.172C358.975 613.172 351.981 613.172 350.67 610.986C349.358 608.8 338.429 524.43 342.364 506.944C346.298 489.457 348.921 480.714 348.921 480.714C348.921 480.714 344.112 477.654 345.424 475.906C346.735 474.157 353.293 455.36 350.232 452.299C347.172 449.239 346.735 430.442 346.735 430.442Z" fill="#384047"/>
<path d="M362.691 420.531C352.551 420.531 344.331 412.311 344.331 402.171C344.331 392.031 352.551 383.811 362.691 383.811C372.831 383.811 381.052 392.031 381.052 402.171C381.052 412.311 372.831 420.531 362.691 420.531Z" fill="#384047"/>
<path d="M351.226 392.98C354.32 392.253 357.016 390.362 358.753 387.701C360.491 385.04 361.137 381.812 360.558 378.687C360.611 378.875 360.662 379.064 360.707 379.257C361.455 382.449 360.905 385.808 359.177 388.595C357.45 391.382 354.686 393.369 351.494 394.119C348.302 394.869 344.943 394.321 342.155 392.595C339.367 390.869 337.378 388.107 336.626 384.915C336.581 384.723 336.542 384.53 336.506 384.338C337.379 387.394 339.396 389.996 342.136 391.605C344.877 393.214 348.132 393.707 351.226 392.98Z" fill="#384047"/>
<path d="M350.479 395.372C345.517 395.372 341.494 391.349 341.494 386.387C341.494 381.425 345.517 377.402 350.479 377.402C355.441 377.402 359.464 381.425 359.464 386.387C359.464 391.349 355.441 395.372 350.479 395.372Z" fill="#384047"/>
</g>
<defs>
<clipPath id="clip0">
<rect width="885.87" height="622.804" fill="white" transform="matrix(-1 0 0 1 886 0)"/>
</clipPath>
</defs>
</svg>
