<svg width="232" height="250" viewBox="0 0 232 250" fill="none" xmlns="http://www.w3.org/2000/svg">
<g clip-path="url(#clip0)">
<path d="M208.247 229.751H191.125V250H208.247V229.751Z" fill="url(#paint0_linear)"/>
<path d="M191.525 249.26H207.851V229.748H191.525V249.26Z" fill="#384047"/>
<path d="M40.6139 229.751H23.4924V250H40.6139V229.751Z" fill="url(#paint1_linear)"/>
<path d="M40.2183 229.751H23.8916V249.263H40.2183V229.751Z" fill="#384047"/>
<path d="M226.276 0H5.06821C2.26912 0 0 2.26912 0 5.06821V227.469C0 230.268 2.26912 232.537 5.06821 232.537H226.276C229.075 232.537 231.344 230.268 231.344 227.469V5.06821C231.344 2.26912 229.075 0 226.276 0Z" fill="url(#paint2_linear)"/>
<path d="M225.078 1.19373H6.66099C3.86189 1.19373 1.59277 3.46284 1.59277 6.26194V224.679C1.59277 227.479 3.86189 229.748 6.66099 229.748H225.078C227.878 229.748 230.147 227.479 230.147 224.679V6.26194C230.147 3.46284 227.878 1.19373 225.078 1.19373Z" fill="#747B81"/>
<path d="M192.92 38.025H38.4243V194.113H192.92V38.025Z" fill="url(#paint3_linear)"/>
<path fill-rule="evenodd" clip-rule="evenodd" d="M212.739 96.0017C215.64 90.977 213.919 84.552 208.894 81.651C203.869 78.75 197.444 80.4715 194.543 85.4962L189.29 94.5942L198.388 99.8469C203.413 102.748 209.838 101.026 212.739 96.0017ZM202.805 96.4612C203.39 95.4478 203.089 91.7324 203.089 91.7324C203.089 91.7324 199.721 93.3292 199.136 94.3426C198.55 95.356 198.898 96.6517 199.911 97.2367C200.924 97.8216 202.22 97.4746 202.805 96.4612ZM204.224 89.7665C204.224 89.7665 207.592 88.1697 208.178 87.1562C208.763 86.1428 208.415 84.8471 207.402 84.2622C206.389 83.6772 205.093 84.0242 204.508 85.0376C203.923 86.0511 204.224 89.7665 204.224 89.7665ZM198.392 92.9304C199.563 92.9304 202.63 90.8117 202.63 90.8117C202.63 90.8117 199.563 88.6931 198.392 88.6931C197.222 88.6931 196.274 89.6419 196.274 90.8117C196.274 91.9816 197.222 92.9304 198.392 92.9304ZM204.598 90.8346C204.598 90.8346 207.666 92.9533 208.836 92.9533C210.006 92.9533 210.954 92.0045 210.954 90.8347C210.954 89.6648 210.006 88.716 208.836 88.716C207.666 88.716 204.598 90.8346 204.598 90.8346ZM199.14 87.3019C199.726 88.3153 203.094 89.9121 203.094 89.9121C203.094 89.9121 203.395 86.1967 202.81 85.1833C202.225 84.1698 200.929 83.8228 199.916 84.4078C198.903 84.9927 198.555 86.2884 199.14 87.3019ZM204.098 91.6058C204.098 91.6058 203.797 95.3212 204.382 96.3346C204.967 97.3481 206.263 97.6951 207.276 97.1101C208.289 96.5252 208.637 95.2295 208.052 94.216C207.467 93.2026 204.098 91.6058 204.098 91.6058Z" fill="#0DE5A8"/>
<path fill-rule="evenodd" clip-rule="evenodd" d="M212.739 126.083C215.64 131.108 213.919 137.533 208.894 140.434C203.869 143.335 197.444 141.613 194.543 136.588L189.29 127.49L198.388 122.238C203.413 119.337 209.838 121.058 212.739 126.083ZM202.805 125.623C203.39 126.637 203.089 130.352 203.089 130.352C203.089 130.352 199.721 128.755 199.136 127.742C198.55 126.729 198.898 125.433 199.911 124.848C200.924 124.263 202.22 124.61 202.805 125.623ZM204.224 132.318C204.224 132.318 207.592 133.915 208.178 134.928C208.763 135.942 208.415 137.238 207.402 137.822C206.389 138.407 205.093 138.06 204.508 137.047C203.923 136.034 204.224 132.318 204.224 132.318ZM198.392 129.154C199.563 129.154 202.63 131.273 202.63 131.273C202.63 131.273 199.563 133.391 198.392 133.391C197.222 133.391 196.274 132.443 196.274 131.273C196.274 130.103 197.222 129.154 198.392 129.154ZM204.598 131.25C204.598 131.25 207.666 129.131 208.836 129.131C210.006 129.131 210.954 130.08 210.954 131.25C210.954 132.42 210.006 133.369 208.836 133.369C207.666 133.369 204.598 131.25 204.598 131.25ZM199.14 134.783C199.726 133.769 203.094 132.172 203.094 132.172C203.094 132.172 203.395 135.888 202.81 136.901C202.225 137.915 200.929 138.262 199.916 137.677C198.903 137.092 198.555 135.796 199.14 134.783ZM204.098 130.479C204.098 130.479 203.797 126.763 204.382 125.75C204.967 124.737 206.263 124.39 207.276 124.974C208.289 125.559 208.637 126.855 208.052 127.869C207.467 128.882 204.098 130.479 204.098 130.479Z" fill="#0DE5A8"/>
<path fill-rule="evenodd" clip-rule="evenodd" d="M207.573 118.378C211.53 114.134 211.297 107.487 207.054 103.53C202.811 99.5727 196.163 99.8048 192.206 104.048L185.042 111.731L192.725 118.896C196.968 122.853 203.616 122.621 207.573 118.378ZM197.79 116.591C198.588 115.735 199.13 112.047 199.13 112.047C199.13 112.047 195.489 112.845 194.691 113.701C193.893 114.557 193.94 115.897 194.795 116.695C195.651 117.493 196.992 117.446 197.79 116.591ZM200.678 110.387C200.678 110.387 204.319 109.589 205.117 108.733C205.915 107.877 205.868 106.536 205.013 105.738C204.157 104.941 202.816 104.987 202.018 105.843C201.22 106.699 200.678 110.387 200.678 110.387ZM194.284 112.157C195.424 112.421 198.889 111.046 198.889 111.046C198.889 111.046 196.377 108.292 195.237 108.029C194.097 107.766 192.959 108.477 192.696 109.617C192.433 110.756 193.144 111.894 194.284 112.157ZM200.802 111.512C200.802 111.512 203.314 114.266 204.455 114.529C205.595 114.792 206.732 114.081 206.995 112.941C207.259 111.802 206.548 110.664 205.408 110.401C204.268 110.137 200.802 111.512 200.802 111.512ZM196.279 106.842C196.621 107.961 199.544 110.274 199.544 110.274C199.544 110.274 200.673 106.722 200.331 105.603C199.989 104.484 198.804 103.854 197.686 104.196C196.567 104.538 195.937 105.723 196.279 106.842ZM200.142 112.151C200.142 112.151 199.012 115.703 199.354 116.822C199.697 117.941 200.881 118.571 202 118.229C203.119 117.887 203.749 116.702 203.407 115.583C203.064 114.464 200.142 112.151 200.142 112.151Z" fill="#0DE5A8"/>
<path d="M191.722 39.6179H39.6179V191.722H191.722V39.6179Z" fill="#50585F"/>
<path d="M115.672 144.342C131.506 144.342 144.342 131.506 144.342 115.672C144.342 99.8381 131.506 87.0022 115.672 87.0022C99.8379 87.0022 87.002 99.8381 87.002 115.672C87.002 131.506 99.8379 144.342 115.672 144.342Z" fill="url(#paint4_linear)"/>
<path d="M115.672 143.148C130.847 143.148 143.148 130.847 143.148 115.672C143.148 100.497 130.847 88.1958 115.672 88.1958C100.497 88.1958 88.1958 100.497 88.1958 115.672C88.1958 130.847 100.497 143.148 115.672 143.148Z" fill="#747B81"/>
<path d="M103.131 170.42H94.7681V179.178H103.131V170.42Z" fill="url(#paint5_linear)"/>
<path d="M114.28 170.42H105.917V179.178H114.28V170.42Z" fill="url(#paint6_linear)"/>
<path d="M125.426 170.42H117.063V179.178H125.426V170.42Z" fill="url(#paint7_linear)"/>
<path d="M136.576 170.42H128.213V179.178H136.576V170.42Z" fill="url(#paint8_linear)"/>
<path d="M102.93 170.819H94.9658V178.783H102.93V170.819Z" fill="#0DE5A8"/>
<path opacity="0.7" d="M114.079 170.819H106.115V178.783H114.079V170.819Z" fill="#0DE5A8"/>
<path opacity="0.5" d="M125.229 170.819H117.265V178.783H125.229V170.819Z" fill="#0DE5A8"/>
<path opacity="0.3" d="M136.378 170.819H128.414V178.783H136.378V170.819Z" fill="#0DE5A8"/>
<path d="M128.478 99.1184L127.173 98.2048L123.977 102.77L125.281 103.684L128.478 99.1184Z" fill="#0DE5A8"/>
<path d="M132.225 128.476L133.139 127.171L128.574 123.975L127.66 125.279L132.225 128.476Z" fill="#0DE5A8"/>
<path d="M102.864 132.224L104.169 133.137L107.366 128.572L106.061 127.658L102.864 132.224Z" fill="#0DE5A8"/>
<path d="M99.1201 102.866L98.2065 104.171L102.772 107.367L103.685 106.063L99.1201 102.866Z" fill="#0DE5A8"/>
<path opacity="0.2" d="M128.463 99.0715L127.159 98.158L123.962 102.723L125.267 103.637L128.463 99.0715Z" fill="black"/>
<path opacity="0.2" d="M132.212 128.43L133.126 127.125L128.561 123.929L127.647 125.234L132.212 128.43Z" fill="black"/>
<path opacity="0.2" d="M102.854 132.176L104.158 133.089L107.355 128.524L106.05 127.611L102.854 132.176Z" fill="black"/>
<path opacity="0.2" d="M99.1072 102.819L98.1936 104.124L102.759 107.32L103.672 106.016L99.1072 102.819Z" fill="black"/>
<path d="M115.672 132.991C125.237 132.991 132.991 125.237 132.991 115.672C132.991 106.107 125.237 98.3527 115.672 98.3527C106.107 98.3527 98.3525 106.107 98.3525 115.672C98.3525 125.237 106.107 132.991 115.672 132.991Z" fill="url(#paint9_linear)"/>
<path d="M115.672 131.999C124.689 131.999 131.999 124.689 131.999 115.672C131.999 106.655 124.689 99.3452 115.672 99.3452C106.655 99.3452 99.3452 106.655 99.3452 115.672C99.3452 124.689 106.655 131.999 115.672 131.999Z" fill="#0DE5A8"/>
<path opacity="0.2" d="M102.333 117.862C102.33 114.999 103.079 112.185 104.507 109.704C105.935 107.222 107.99 105.16 110.466 103.723C112.943 102.287 115.753 101.527 118.616 101.52C121.479 101.513 124.293 102.259 126.777 103.683C125.111 102.08 123.123 100.849 120.945 100.072C118.768 99.2943 116.45 98.9885 114.145 99.1745C111.84 99.3605 109.601 100.034 107.576 101.151C105.551 102.267 103.787 103.801 102.399 105.651C101.012 107.501 100.033 109.624 99.5284 111.881C99.0235 114.137 99.0038 116.475 99.4706 118.74C99.9373 121.005 100.88 123.144 102.236 125.017C103.592 126.89 105.33 128.454 107.336 129.604C105.754 128.085 104.495 126.262 103.635 124.244C102.775 122.226 102.332 120.055 102.333 117.862V117.862Z" fill="white"/>
<path d="M46.1904 101.139H33.4482V69.3246C33.4491 68.9969 33.58 68.6828 33.8121 68.4514C34.0441 68.2199 34.3585 68.09 34.6863 68.09H44.9557C45.2841 68.09 45.599 68.2204 45.8312 68.4526C46.0634 68.6848 46.1938 68.9997 46.1938 69.328L46.1904 101.139Z" fill="url(#paint10_linear)"/>
<path d="M44.8909 163.653H34.7477C34.4031 163.653 34.0725 163.516 33.8288 163.272C33.5851 163.028 33.4482 162.698 33.4482 162.353V130.604H46.1904V162.346C46.1913 162.518 46.1584 162.687 46.0934 162.846C46.0285 163.004 45.933 163.148 45.8122 163.27C45.6915 163.391 45.5479 163.487 45.3898 163.553C45.2317 163.619 45.0622 163.653 44.8909 163.653V163.653Z" fill="url(#paint11_linear)"/>
<path d="M34.925 68.4857H44.7101C44.9969 68.4857 45.2719 68.5996 45.4746 68.8024C45.6774 69.0051 45.7913 69.2801 45.7913 69.5669V100.341H33.8541V69.5771C33.8527 69.4351 33.8793 69.2943 33.9324 69.1626C33.9855 69.0309 34.064 68.911 34.1635 68.8096C34.2629 68.7083 34.3814 68.6275 34.512 68.5719C34.6427 68.5163 34.783 68.4871 34.925 68.4857V68.4857Z" fill="#384047"/>
<path d="M33.8438 131.003H45.781V162.493C45.781 162.589 45.7429 162.681 45.6751 162.749C45.6073 162.817 45.5153 162.855 45.4195 162.855H34.2087C34.1128 162.855 34.0208 162.817 33.953 162.749C33.8852 162.681 33.8472 162.589 33.8472 162.493V131.003H33.8438Z" fill="#384047"/>
</g>
<defs>
<linearGradient id="paint0_linear" x1="199.686" y1="250" x2="199.686" y2="229.751" gradientUnits="userSpaceOnUse">
<stop stop-color="#808080" stop-opacity="0.25"/>
<stop offset="0.54" stop-color="#808080" stop-opacity="0.12"/>
<stop offset="1" stop-color="#808080" stop-opacity="0.1"/>
</linearGradient>
<linearGradient id="paint1_linear" x1="1632.56" y1="229.751" x2="1632.56" y2="13870.1" gradientUnits="userSpaceOnUse">
<stop stop-color="#808080" stop-opacity="0.25"/>
<stop offset="0.54" stop-color="#808080" stop-opacity="0.12"/>
<stop offset="1" stop-color="#808080" stop-opacity="0.1"/>
</linearGradient>
<linearGradient id="paint2_linear" x1="78460.2" y1="158544" x2="78460.2" y2="0" gradientUnits="userSpaceOnUse">
<stop stop-color="#808080" stop-opacity="0.25"/>
<stop offset="0.54" stop-color="#808080" stop-opacity="0.12"/>
<stop offset="1" stop-color="#808080" stop-opacity="0.1"/>
</linearGradient>
<linearGradient id="paint3_linear" x1="52435.5" y1="88873.9" x2="52435.5" y2="17440.3" gradientUnits="userSpaceOnUse">
<stop stop-color="#808080" stop-opacity="0.25"/>
<stop offset="0.54" stop-color="#808080" stop-opacity="0.12"/>
<stop offset="1" stop-color="#808080" stop-opacity="0.1"/>
</linearGradient>
<linearGradient id="paint4_linear" x1="19533.8" y1="24353.7" x2="19533.8" y2="14713.8" gradientUnits="userSpaceOnUse">
<stop stop-color="#808080" stop-opacity="0.25"/>
<stop offset="0.54" stop-color="#808080" stop-opacity="0.12"/>
<stop offset="1" stop-color="#808080" stop-opacity="0.1"/>
</linearGradient>
<linearGradient id="paint5_linear" x1="2520.93" y1="4771.78" x2="2520.93" y2="4546.77" gradientUnits="userSpaceOnUse">
<stop stop-color="#808080" stop-opacity="0.25"/>
<stop offset="0.54" stop-color="#808080" stop-opacity="0.12"/>
<stop offset="1" stop-color="#808080" stop-opacity="0.1"/>
</linearGradient>
<linearGradient id="paint6_linear" x1="2805.46" y1="4771.78" x2="2805.46" y2="4546.77" gradientUnits="userSpaceOnUse">
<stop stop-color="#808080" stop-opacity="0.25"/>
<stop offset="0.54" stop-color="#808080" stop-opacity="0.12"/>
<stop offset="1" stop-color="#808080" stop-opacity="0.1"/>
</linearGradient>
<linearGradient id="paint7_linear" x1="3089.99" y1="4771.78" x2="3089.99" y2="4546.77" gradientUnits="userSpaceOnUse">
<stop stop-color="#808080" stop-opacity="0.25"/>
<stop offset="0.54" stop-color="#808080" stop-opacity="0.12"/>
<stop offset="1" stop-color="#808080" stop-opacity="0.1"/>
</linearGradient>
<linearGradient id="paint8_linear" x1="3374.52" y1="4771.78" x2="3374.52" y2="4546.77" gradientUnits="userSpaceOnUse">
<stop stop-color="#808080" stop-opacity="0.25"/>
<stop offset="0.54" stop-color="#808080" stop-opacity="0.12"/>
<stop offset="1" stop-color="#808080" stop-opacity="0.1"/>
</linearGradient>
<linearGradient id="paint9_linear" x1="11846" y1="13604.9" x2="11846" y2="10086.7" gradientUnits="userSpaceOnUse">
<stop stop-color="#808080" stop-opacity="0.25"/>
<stop offset="0.54" stop-color="#808080" stop-opacity="0.12"/>
<stop offset="1" stop-color="#808080" stop-opacity="0.1"/>
</linearGradient>
<linearGradient id="paint10_linear" x1="4846.17" y1="12644.6" x2="4846.17" y2="9442.14" gradientUnits="userSpaceOnUse">
<stop stop-color="#808080" stop-opacity="0.25"/>
<stop offset="0.54" stop-color="#808080" stop-opacity="0.12"/>
<stop offset="1" stop-color="#808080" stop-opacity="0.1"/>
</linearGradient>
<linearGradient id="paint11_linear" x1="4844.9" y1="18764.7" x2="4844.9" y2="15562.2" gradientUnits="userSpaceOnUse">
<stop stop-color="#808080" stop-opacity="0.25"/>
<stop offset="0.54" stop-color="#808080" stop-opacity="0.12"/>
<stop offset="1" stop-color="#808080" stop-opacity="0.1"/>
</linearGradient>
<clipPath id="clip0">
<rect width="231.344" height="250" fill="white"/>
</clipPath>
</defs>
</svg>
