<svg width="400" height="239" viewBox="0 0 400 239" fill="none" xmlns="http://www.w3.org/2000/svg">
<g clip-path="url(#clip0)">
<path d="M305.433 30.9094H0.927979V31.792H305.433V30.9094Z" fill="#9CA0A4"/>
<path d="M98.5838 49.3783H19.533V50.2665H98.5838V49.3783Z" fill="#9CA0A4"/>
<path d="M98.5838 55.5957H19.533V56.4839H98.5838V55.5957Z" fill="#9CA0A4"/>
<path d="M98.5838 61.8132H19.533V62.7015H98.5838V61.8132Z" fill="#9CA0A4"/>
<path d="M38.9212 27.0681H21.1406V41.5149H38.9212V27.0681Z" fill="#C2C4C6"/>
<path d="M36.3283 39.2923H17.8069V24.1047H36.3283V39.2923ZM18.5477 38.5515H35.5875V24.8456H18.5477V38.5515Z" fill="#9CA0A4"/>
<path d="M3.5305 35.3838C5.48034 35.3838 7.061 33.8031 7.061 31.8533C7.061 29.9034 5.48034 28.3228 3.5305 28.3228C1.58066 28.3228 0 29.9034 0 31.8533C0 33.8031 1.58066 35.3838 3.5305 35.3838Z" fill="#0DE5A8"/>
<path d="M400 49.3783H320.949V50.2665H400V49.3783Z" fill="#9CA0A4"/>
<path d="M400 55.5957H320.949V56.4839H400V55.5957Z" fill="#9CA0A4"/>
<path d="M400 61.8132H320.949V62.7015H400V61.8132Z" fill="#9CA0A4"/>
<path d="M340.337 27.0681H322.557V41.5149H340.337V27.0681Z" fill="#C2C4C6"/>
<path d="M337.745 39.2923H319.223V24.1047H337.745V39.2923ZM319.964 38.5515H337.004V24.8456H319.964V38.5515Z" fill="#9CA0A4"/>
<path d="M304.947 35.3838C306.897 35.3838 308.477 33.8031 308.477 31.8533C308.477 29.9034 306.897 28.3228 304.947 28.3228C302.997 28.3228 301.416 29.9034 301.416 31.8533C301.416 33.8031 302.997 35.3838 304.947 35.3838Z" fill="#0DE5A8"/>
<path d="M249.512 12.4349H170.462V13.3231H249.512V12.4349Z" fill="#9CA0A4"/>
<path d="M249.512 6.21753H170.462V7.10574H249.512V6.21753Z" fill="#9CA0A4"/>
<path d="M249.512 0H170.462V0.888211H249.512V0Z" fill="#9CA0A4"/>
<path d="M189.85 21.1866H172.069V35.6334H189.85V21.1866Z" fill="#C2C4C6"/>
<path d="M187.257 38.5968H168.736V23.4092H187.257V38.5968ZM169.476 37.8559H186.516V24.1501H169.476V37.8559Z" fill="#9CA0A4"/>
<path d="M154.459 34.3786C156.409 34.3786 157.99 32.798 157.99 30.8481C157.99 28.8983 156.409 27.3176 154.459 27.3176C152.509 27.3176 150.929 28.8983 150.929 30.8481C150.929 32.798 152.509 34.3786 154.459 34.3786Z" fill="#0DE5A8"/>
<path d="M59.1809 38.8531C63.5681 38.8531 67.1245 35.2966 67.1245 30.9094C67.1245 26.5223 63.5681 22.9658 59.1809 22.9658C54.7938 22.9658 51.2373 26.5223 51.2373 30.9094C51.2373 35.2966 54.7938 38.8531 59.1809 38.8531Z" fill="white"/>
<path d="M59.174 21.962C57.4359 21.962 55.7368 22.4774 54.2917 23.4431C52.8465 24.4087 51.7201 25.7812 51.0549 27.387C50.3898 28.9928 50.2158 30.7598 50.5549 32.4645C50.8939 34.1692 51.7309 35.7351 52.9599 36.9641C54.189 38.1931 55.7548 39.0301 57.4596 39.3692C59.1643 39.7083 60.9312 39.5343 62.537 38.8691C64.1429 38.204 65.5154 37.0776 66.481 35.6324C67.4466 34.1872 67.962 32.4882 67.962 30.7501C67.962 29.596 67.7347 28.4532 67.2931 27.387C66.8515 26.3208 66.2041 25.352 65.3881 24.536C64.5721 23.7199 63.6033 23.0726 62.537 22.631C61.4708 22.1893 60.3281 21.962 59.174 21.962V21.962ZM57.658 34.6827L53.8779 30.9025L54.9382 29.8423L57.6616 32.5657L63.4098 26.8174L64.4701 27.8777L57.658 34.6827Z" fill="#0DE5A8"/>
<path d="M182.568 210.082C190.124 210.082 196.249 208.699 196.249 206.993C196.249 205.287 190.124 203.904 182.568 203.904C175.012 203.904 168.887 205.287 168.887 206.993C168.887 208.699 175.012 210.082 182.568 210.082Z" fill="#D0CDE1"/>
<path d="M183.892 206.552C188.279 206.552 191.836 202.995 191.836 198.608C191.836 194.221 188.279 190.664 183.892 190.664C179.505 190.664 175.948 194.221 175.948 198.608C175.948 202.995 179.505 206.552 183.892 206.552Z" fill="white"/>
<path d="M183.885 189.661C182.147 189.661 180.448 190.176 179.003 191.142C177.558 192.107 176.431 193.48 175.766 195.086C175.101 196.691 174.927 198.458 175.266 200.163C175.605 201.868 176.442 203.434 177.671 204.663C178.9 205.892 180.466 206.729 182.171 207.068C183.875 207.407 185.642 207.233 187.248 206.568C188.854 205.903 190.227 204.776 191.192 203.331C192.158 201.886 192.673 200.187 192.673 198.449C192.673 197.295 192.446 196.152 192.004 195.086C191.563 194.019 190.915 193.051 190.099 192.235C189.283 191.419 188.314 190.771 187.248 190.33C186.182 189.888 185.039 189.661 183.885 189.661ZM182.369 202.381L178.589 198.601L179.649 197.541L182.373 200.264L188.121 194.516L189.181 195.576L182.369 202.381Z" fill="#0DE5A8"/>
<path d="M107.104 210.082C114.659 210.082 120.784 208.699 120.784 206.993C120.784 205.287 114.659 203.904 107.104 203.904C99.5481 203.904 93.4231 205.287 93.4231 206.993C93.4231 208.699 99.5481 210.082 107.104 210.082Z" fill="#D0CDE1"/>
<path d="M142.85 210.082C150.406 210.082 156.531 208.699 156.531 206.993C156.531 205.287 150.406 203.904 142.85 203.904C135.294 203.904 129.169 205.287 129.169 206.993C129.169 208.699 135.294 210.082 142.85 210.082Z" fill="#D0CDE1"/>
<path d="M144.174 206.552C148.561 206.552 152.118 202.995 152.118 198.608C152.118 194.221 148.561 190.664 144.174 190.664C139.787 190.664 136.23 194.221 136.23 198.608C136.23 202.995 139.787 206.552 144.174 206.552Z" fill="white"/>
<path d="M144.167 189.661C142.429 189.661 140.73 190.176 139.285 191.142C137.839 192.107 136.713 193.48 136.048 195.086C135.383 196.691 135.209 198.458 135.548 200.163C135.887 201.868 136.724 203.434 137.953 204.663C139.182 205.892 140.748 206.729 142.452 207.068C144.157 207.407 145.924 207.233 147.53 206.568C149.136 205.903 150.508 204.776 151.474 203.331C152.44 201.886 152.955 200.187 152.955 198.449C152.955 197.295 152.728 196.152 152.286 195.086C151.844 194.019 151.197 193.051 150.381 192.235C149.565 191.419 148.596 190.771 147.53 190.33C146.464 189.888 145.321 189.661 144.167 189.661V189.661ZM142.651 202.381L138.871 198.601L139.931 197.541L142.655 200.264L148.403 194.516L149.463 195.576L142.651 202.381Z" fill="#0DE5A8"/>
<path d="M317.168 217.805H82.8315V218.688H317.168V217.805Z" fill="#9CA0A4"/>
<path d="M280.35 231.415C280.35 231.442 280.266 231.486 280.112 231.548C277.618 232.563 256.365 238.061 253.871 238.476C251.223 238.918 240.632 237.152 238.425 232.739C236.219 228.326 249.899 227.002 249.899 227.002L254.754 222.148L255.442 218.472L256.078 215.087L277.261 224.354C277.261 224.354 280.35 230.974 280.35 231.415Z" fill="#2F2E41"/>
<path d="M196.942 179.782L193.853 181.547C193.853 181.547 183.261 189.491 186.792 193.021C190.322 196.552 195.618 186.402 195.618 186.402L198.707 184.195L196.942 179.782Z" fill="#FFB8B8"/>
<path d="M228.717 136.975C235.297 136.975 240.632 131.64 240.632 125.059C240.632 118.479 235.297 113.144 228.717 113.144C222.136 113.144 216.801 118.479 216.801 125.059C216.801 131.64 222.136 136.975 228.717 136.975Z" fill="#FFB8B8"/>
<path d="M236.66 121.087C236.66 121.087 251.224 125.059 252.547 124.618L248.134 140.505C248.134 140.505 235.778 132.12 233.571 132.12L236.66 121.087Z" fill="#FFB8B8"/>
<path d="M240.632 136.975C240.632 136.975 247.252 122.853 249.017 122.853C250.782 122.853 272.407 124.177 282.998 139.623C293.59 155.069 293.59 160.806 293.59 160.806L264.904 167.867L264.022 166.984C264.022 166.984 256.078 169.191 251.224 158.158L240.632 136.975Z" fill="#D1D3D5"/>
<path d="M252.547 130.796C252.547 130.796 243.721 129.914 237.543 140.064C231.364 150.214 219.008 159.04 219.008 159.04L195.618 179.782L198.266 185.96L226.069 169.191L258.284 146.684C258.284 146.684 263.58 133.444 252.547 130.796Z" fill="#D1D3D5"/>
<path d="M256.078 178.899L253.871 212.439C253.871 212.439 251.294 210.921 247.401 208.498C238.023 202.659 221.015 191.551 214.153 183.753C206.223 174.742 215.962 169.848 219.793 168.365C220.653 168.029 221.214 167.866 221.214 167.866L256.078 178.899Z" fill="#FFB8B8"/>
<path opacity="0.15" d="M280.35 231.415C280.35 231.442 280.266 231.486 280.111 231.548C270.12 230.519 261.912 225.118 255.442 218.472L256.078 215.087L277.261 224.354C277.261 224.354 280.35 230.974 280.35 231.415Z" fill="black"/>
<path d="M264.904 166.101V169.191C264.904 169.191 263.139 168.308 264.022 170.073L263.58 171.397L254.313 172.721C254.313 172.721 222.98 162.571 219.89 167.425L224.745 190.815L237.543 187.284C237.543 187.284 256.519 241.566 296.237 228.326L296.679 226.561L304.622 224.796C304.622 224.796 298.885 162.13 294.031 159.923L264.904 166.101Z" fill="#2F2E41"/>
<path opacity="0.15" d="M295.103 190.223V223.321" stroke="black" stroke-width="2" stroke-miterlimit="10"/>
<path opacity="0.15" d="M240.821 185.81L264.652 178.308" stroke="black" stroke-width="2" stroke-miterlimit="10"/>
<path opacity="0.15" d="M262.256 217.79L278.774 181.838" stroke="black" stroke-width="2" stroke-miterlimit="10"/>
<path d="M234.381 116.917C236.398 115.616 238.394 114.007 240.751 113.777C243.843 113.474 246.541 115.632 248.622 117.885C250.702 120.138 252.692 122.723 255.603 123.708C257.295 124.28 259.136 124.247 260.915 124.475C262.695 124.704 264.556 125.282 265.617 126.718C266.725 128.218 266.704 130.272 267.193 132.09C267.754 134.037 268.932 135.749 270.549 136.971C272.166 138.192 274.135 138.855 276.161 138.862C272.264 138.617 268.669 141.005 265.327 143.163C261.985 145.321 258.111 147.429 254.32 146.558C250.455 145.67 247.945 141.957 244.35 140.315C241.277 138.911 237.715 139.14 234.318 138.912C230.921 138.685 227.224 137.747 225.41 134.886C224.072 132.775 223.805 129.72 221.576 128.606C220.197 127.917 218.535 128.253 216.979 128.225C215.424 128.197 213.603 127.473 213.424 125.918C217.43 123.731 221.397 121.423 225.46 119.35C227.965 118.071 232.435 119.534 234.381 116.917Z" fill="#2F2E41"/>
<path d="M219.257 127.115C219.257 127.115 239.497 116.995 239.497 113.381C239.497 109.766 231.546 98.9232 217.088 98.9232C217.088 98.9232 213.474 92.4173 209.136 97.4775C204.799 102.538 211.305 106.152 211.305 106.152C211.305 106.152 203.353 119.164 214.919 127.115H219.257Z" fill="#D1D3D5"/>
</g>
<defs>
<clipPath id="clip0">
<rect width="400" height="238.542" fill="white"/>
</clipPath>
</defs>
</svg>
