<svg width="32" height="32" viewBox="0 0 32 32" fill="none" xmlns="http://www.w3.org/2000/svg">
<path d="M15.7344 8.35352L15.502 8.58594C15.3359 8.75195 15.3359 8.98438 15.502 9.15039L21.4121 15.0605H8.96094C8.72852 15.0605 8.5625 15.2598 8.5625 15.459V15.791C8.5625 16.0234 8.72852 16.1895 8.96094 16.1895H21.4121L15.502 22.1328C15.3359 22.2988 15.3359 22.5312 15.502 22.6973L15.7344 22.9297C15.9004 23.0957 16.1328 23.0957 16.2988 22.9297L23.3047 15.9238C23.4707 15.7578 23.4707 15.5254 23.3047 15.3594L16.2988 8.35352C16.1328 8.1875 15.9004 8.1875 15.7344 8.35352Z" fill="#0DE5A8"/>
</svg>
