<svg width="1280" height="225" viewBox="0 0 1280 225" fill="none" xmlns="http://www.w3.org/2000/svg">
<g clip-path="url(#clip0)">
<path d="M-3.8147e-05 0V225C276.251 225 372.709 101.437 505.104 78.8437C636.789 56.3437 739.088 89.8125 845.184 88.9687C947.424 88.0312 1011.56 54.75 1118.83 27.2812C1197.06 7.40625 1256.95 14.3344 1280 18.6562V0H-3.8147e-05Z" fill="#50585F" fill-opacity="0.33"/>
<path d="M-3.8147e-05 -0.000252724V204.281C276.251 204.281 372.709 92.156 505.104 71.531C636.789 51.3841 739.088 81.656 845.184 81.1029C947.424 80.456 1011.56 50.0623 1118.83 25.1248C1197.06 7.2185 1256.95 13.3123 1280 16.9779V-0.000252724H1.24793H-3.8147e-05Z" fill="#50585F" fill-opacity="0.33"/>
<path d="M-3.8147e-05 0.000237703V190.125C276.251 190.125 372.709 81.0003 505.104 58.6784C636.789 36.5628 739.088 89.1471 845.184 88.3971C947.424 87.3752 1011.56 54.6471 1118.83 27.1877C1197.06 7.41586 1256.95 14.344 1280 18.4784V0.000237703H-3.8147e-05Z" fill="#50585F"/>
</g>
<defs>
<clipPath id="clip0">
<rect width="1280" height="225" fill="white" transform="translate(1280 225) rotate(-180)"/>
</clipPath>
</defs>
</svg>
