<svg width="1280" height="225" viewBox="0 0 1280 225" fill="none" xmlns="http://www.w3.org/2000/svg">
<g clip-path="url(#clip0)">
<path d="M1280 225V0C1003.75 0 907.291 123.563 774.896 146.156C643.211 168.656 540.912 135.188 434.816 136.031C332.576 136.969 268.437 170.25 161.168 197.719C82.944 217.594 23.0453 210.666 0 206.344V225H1280Z" fill="#50585F" fill-opacity="0.33"/>
<path d="M1280 225V20.7189C1003.75 20.7189 907.291 132.844 774.896 153.469C643.211 173.616 540.912 143.344 434.816 143.897C332.576 144.544 268.437 174.938 161.168 199.875C82.944 217.781 23.0453 211.688 0 208.022V225H1278.75H1280Z" fill="#50585F" fill-opacity="0.33"/>
<path d="M1280 225V34.8747C1003.75 34.8747 907.291 144 774.896 166.322C643.211 188.437 540.912 135.853 434.816 136.603C332.576 137.625 268.437 170.353 161.168 197.812C82.944 217.584 23.0453 210.656 0 206.522V225H1280Z" fill="#50585F"/>
</g>
<defs>
<clipPath id="clip0">
<rect width="1280" height="225" fill="white"/>
</clipPath>
</defs>
</svg>
