<svg width="1280" height="553" viewBox="0 0 1280 553" fill="none" xmlns="http://www.w3.org/2000/svg">
<g clip-path="url(#clip0)">
<path d="M1280 599.693H0V0.161072H1280V599.693Z" fill="#282F35"/>
<path d="M1280 599.693H0V0.161072H1280V599.693Z" fill="url(#paint0_radial)"/>
<path d="M1280 599.693H0V0.161072H1280V599.693Z" fill="url(#paint1_radial)"/>
<path d="M1280 599.693H0V0.161072H1280V599.693Z" fill="url(#paint2_radial)"/>
<path d="M1280 599.693H0V0.161072H1280V599.693Z" fill="url(#paint3_radial)"/>
<path d="M1280 599.693H0V0.161072H1280V599.693Z" fill="url(#paint4_radial)"/>
</g>
<defs>
<radialGradient id="paint0_radial" cx="0" cy="0" r="1" gradientUnits="userSpaceOnUse" gradientTransform="translate(1280 0.161072) scale(853.333 599.532)">
<stop stop-color="#282F35"/>
<stop offset="1" stop-color="#282F35"/>
</radialGradient>
<radialGradient id="paint1_radial" cx="0" cy="0" r="1" gradientUnits="userSpaceOnUse" gradientTransform="translate(640 599.693) scale(640 449.649)">
<stop stop-color="#3AC1B9"/>
<stop offset="1" stop-color="#2AF8B4" stop-opacity="0"/>
</radialGradient>
<radialGradient id="paint2_radial" cx="0" cy="0" r="1" gradientUnits="userSpaceOnUse" gradientTransform="translate(640 0.161085) scale(640 449.649)">
<stop stop-color="#282F35"/>
<stop offset="1" stop-color="#282F35" stop-opacity="0"/>
</radialGradient>
<radialGradient id="paint3_radial" cx="0" cy="0" r="1" gradientUnits="userSpaceOnUse" gradientTransform="translate(0 599.693) scale(853.333 599.532)">
<stop stop-color="#09C4A2"/>
<stop offset="1" stop-color="#06A497" stop-opacity="0"/>
</radialGradient>
<radialGradient id="paint4_radial" cx="0" cy="0" r="1" gradientUnits="userSpaceOnUse" gradientTransform="translate(1280 599.693) scale(853.333 599.532)">
<stop stop-color="#06A497"/>
<stop offset="1" stop-color="#9DFCC5" stop-opacity="0"/>
</radialGradient>
<clipPath id="clip0">
<rect width="1280" height="600" fill="white" transform="matrix(1 0 0 -1 0 600)"/>
</clipPath>
</defs>
</svg>
