<svg width="62" height="62" viewBox="0 0 62 62" fill="none" xmlns="http://www.w3.org/2000/svg">
<path d="M33 33.125C34.25 32 34.25 30.125 33 29C31.875 27.75 30 27.75 28.875 29C27.625 30.125 27.625 32 28.875 33.125C30 34.375 31.875 34.375 33 33.125ZM43.875 14.625C43.625 14.625 43.25 14.75 43 14.875L23.625 21.875C22.75 22.125 22 22.875 21.75 23.75L14.75 43.125C14 45.125 16 47.375 18 47.375C18.25 47.375 18.625 47.375 18.875 47.25L38.25 40.25C39.125 40 39.875 39.25 40.125 38.375L47.125 19C47.875 17 45.875 14.625 43.875 14.625ZM36.5 36.625L19 43L25.375 25.5L42.875 19.125L36.5 36.625ZM31 0C13.875 0 0 14 0 31C0 48.125 13.875 62 31 62C48 62 62 48.125 62 31C62 14 48 0 31 0ZM31 58C16 58 4 46 4 31C4 16.125 16 4 31 4C45.875 4 58 16.125 58 31C58 46 45.875 58 31 58Z" fill="#0DE5A8"/>
</svg>
