<svg width="64" height="64" viewBox="0 0 64 64" fill="none" xmlns="http://www.w3.org/2000/svg">
<path d="M63.75 34.375C61.125 28.5 57.625 15.5 54.625 11.125C50.25 5 40.75 0 33.375 0H25.125C12 0 0.625 10.125 0.125 23.125C0.125 23.375 0 23.75 0 24.125C0 30 3.625 38 8.125 41.875V63C8.125 63.625 8.5 64 9.125 64H11.125C11.625 64 12.125 63.625 12.125 63V40.125L10.75 38.875C7 35.625 4 29 4 24C4 23.875 4.125 23.5 4.125 23.25C4.5 12.625 13.875 4 25.125 4H33.375C39.625 4.125 47.625 8.25 51.375 13.375C52.875 15.625 55 21.75 56.625 26.625C57.875 30.25 59 33.625 60.125 36H52.125V48C52.125 50.25 50.25 52 48.125 52H36.125V63C36.125 63.625 36.5 64 37.125 64H39.125C39.625 64 40.125 63.625 40.125 63V56H48.125C52.5 56 56.125 52.5 56.125 48V40H60.125C62.25 40 64 38.25 64 36C64 35.625 63.875 34.875 63.75 34.375ZM39.25 24C41.875 24 44.125 22 44.125 19.5C44.125 16.875 41.875 14.875 39.25 14.875H39C38.375 13.125 36.375 11.625 34.5 11.625C33.625 11.625 32.75 12 32.125 12.375C31.25 11 29.75 10 28.125 10C26.375 10 24.875 11 24 12.375C23.375 12 22.5 11.625 21.625 11.625C19 11.625 16.875 13.875 16.875 16.5C14.25 16.5 12.125 18.625 12.125 21.25C12.125 23.375 13.5 25.125 15.375 25.75C15.375 25.875 15.25 26 15.25 26C15.25 28.75 17.375 30.875 20.125 30.875C20.5 30.875 21.25 30.75 21.625 30.5V36H28.125V30.5C28.5 30.75 29.25 30.875 29.625 30.875C32.25 30.875 34.5 28.75 34.5 26C34.5 25.5 34.25 24.625 34 24H39.25Z" fill="#0DE5A8"/>
</svg>
