<svg width="65" height="64" viewBox="0 0 65 64" fill="none" xmlns="http://www.w3.org/2000/svg">
<path d="M42 13.75L48.125 16.875L51.125 22.875C51.5 23.5 52.25 24 53 24C53.625 24 54.375 23.5 54.75 22.875L57.75 16.875L63.875 13.75C64.5 13.5 65 12.625 65 12C65 11.25 64.5 10.5 63.875 10.25L57.75 7.125L54.75 1.125C54 -0.25 51.875 -0.25 51.125 1.125L48.125 7.125L42 10.25C41.375 10.5 40.875 11.25 40.875 12C40.875 12.625 41.375 13.5 42 13.75ZM50.5 10.375C50.875 10.25 51.25 9.875 51.375 9.5L53 6.5L54.5 9.5C54.625 9.875 55 10.25 55.375 10.375L58.5 12L55.375 13.5C55 13.75 54.625 14.125 54.5 14.375L53 17.5L51.375 14.375C51.25 14.125 50.875 13.75 50.5 13.5L47.375 12L50.5 10.375ZM63.875 50.25L57.75 47.25L54.75 41.125C54 39.75 51.875 39.75 51.125 41.125L48.125 47.25L42 50.25C41.375 50.5 40.875 51.375 40.875 52C40.875 52.75 41.375 53.5 42 53.875L48.125 56.875L51.125 63C51.5 63.625 52.25 64 53 64C53.625 64 54.375 63.625 54.75 63L57.75 56.875L63.875 53.875C64.5 53.5 65 52.75 65 52C65 51.375 64.5 50.5 63.875 50.25ZM55.375 53.625C55 53.75 54.625 54.125 54.5 54.5L53 57.625L51.375 54.5C51.25 54.125 50.875 53.75 50.5 53.625L47.375 52L50.5 50.5C50.875 50.375 51.25 49.875 51.375 49.625L53 46.5L54.5 49.625C54.625 49.875 55 50.375 55.375 50.5L58.5 52L55.375 53.625ZM49 32C48.875 31.375 48.5 30.5 47.875 30.25L33.75 23.125L26.75 9.125C26 7.75 23.875 7.75 23.125 9.125L16.125 23.125L2 30.25C1.375 30.5 0.875 31.375 0.875 32C0.875 32.75 1.375 33.5 2 33.75L16.125 40.875L23.125 55C23.5 55.5 24.25 56 25 56C25.625 56 26.375 55.5 26.75 55L33.75 40.875L47.875 33.75C48.5 33.5 48.875 32.75 49 32ZM31.375 37.625C31 37.75 30.625 38.125 30.5 38.5L25 49.625L19.375 38.5C19.25 38.125 18.875 37.75 18.5 37.625L7.375 32L18.5 26.5C18.875 26.25 19.25 25.875 19.375 25.625L25 14.5L30.5 25.625C30.625 25.875 31 26.25 31.375 26.5L42.5 32L31.375 37.625Z" fill="#0DE5A8"/>
</svg>
