<svg width="56" height="56" viewBox="0 0 56 56" fill="none" xmlns="http://www.w3.org/2000/svg">
<path d="M50 0H6C2.625 0 0 2.75 0 6V50C0 53.375 2.625 56 6 56H50C53.25 56 56 53.375 56 50V6C56 2.75 53.25 0 50 0ZM52 50C52 51.125 51 52 50 52H6C4.875 52 4 51.125 4 50V6C4 5 4.875 4 6 4H50C51 4 52 5 52 6V50ZM25 16H20V12C20 11.25 19.25 10.5 18.5 10.5H17.5C16.625 10.5 16 11.25 16 12V16H11C9.25 16 8 17.375 8 19V25C8 26.75 9.25 28 11 28H16V42.5C16 43.375 16.625 44 17.5 44H18.5C19.25 44 20 43.375 20 42.5V28H25C26.625 28 28 26.75 28 25V19C28 17.375 26.625 16 25 16ZM24 24H12V20H24V24ZM45 28H40V12C40 11.25 39.25 10.5 38.5 10.5H37.5C36.625 10.5 36 11.25 36 12V28H31C29.25 28 28 29.375 28 31V37C28 38.75 29.25 40 31 40H36V42.5C36 43.375 36.625 44 37.5 44H38.5C39.25 44 40 43.375 40 42.5V40H45C46.625 40 48 38.75 48 37V31C48 29.375 46.625 28 45 28ZM44 36H32V32H44V36Z" fill="#0DE5A8"/>
</svg>
