<svg width="56" height="64" viewBox="0 0 56 64" fill="none" xmlns="http://www.w3.org/2000/svg">
<path d="M47.875 38.625L50.875 30.75C51.375 29.5 50.5 28 49 28H43.625C43.875 27.125 44 26.125 44 25C44 24.125 43.875 23.25 43.625 22.375C48.75 21.25 52 19.375 52 17.375C52 15.375 48.625 13.5 43.25 12.25C42.125 8.125 39.875 3.75 38.125 1.625C37.375 0.625 36.125 0 35 0C33.75 0 33.375 0.375 29.75 2.25C28.125 3 26.75 2.5 26.125 2.25C22.375 0.375 22.125 0 20.875 0C19.75 0 18.625 0.625 17.75 1.625C16 3.75 13.75 8 12.625 12.25C7.375 13.5 4 15.375 4 17.375C4 19.375 7.125 21.25 12.25 22.375C12 23.25 12 24.125 12 25C12 26.125 12 27.125 12.25 28H7C5.5 28 4.625 29.5 5.125 30.875L8.375 38.375C3.375 41.25 0 46.625 0 52.875V58.5C0 61.5 2.5 64 5.5 64H50.375C53.375 64 56 61.5 56 58.5V52.875C56 46.75 52.75 41.5 47.875 38.625ZM16 25C16 24.75 16 24.375 16 24.125C16.125 24.125 16.625 24.5 16.75 24.75C17.25 26.25 17.625 27.875 18.75 28.875C19.75 29.875 24.625 32 26.75 25.75C27.125 24.75 28.75 24.75 29.125 25.75C31.125 31.75 35.875 30.125 37.125 28.875C38.25 27.875 38.625 26.25 39.125 24.75C39.25 24.5 39.75 24.125 39.875 24.125C39.875 24.375 40 24.75 40 25C40 31.625 34.625 37 28 37C21.375 37 16 31.625 16 25ZM15.875 15.625C16 15.25 17.375 8.5 20.875 4C24.5 5.875 25.625 6.625 28 6.625C30.25 6.625 31.375 5.875 35 4V4.125C38.5 8.5 40 15.25 40 15.625C42.75 16.25 44.5 16.625 46.375 17.375C43.375 18.625 37 20 28 20C18.875 20 12.5 18.625 9.5 17.375C11.375 16.625 13.25 16.25 15.875 15.625ZM5.5 60C4.625 60 4 59.375 4 58.5V52.875C4 48.25 6.375 44.125 10.375 41.875L13.5 40L10 32H13.625C14.25 33.25 21.625 45.625 21.625 45.625L17.75 60H5.5ZM22 60L26 45L23.25 40.25C24.75 40.75 26.25 41 28 41C29.625 41 31.125 40.75 32.625 40.25L30 45L34 60H22ZM52 58.5C52 59.375 51.25 60 50.375 60H38.125L34.25 45.625C34.25 45.625 41.625 33.25 42.25 32H46.125L43 40.25L45.875 42C49.625 44.375 52 48.375 52 52.875V58.5Z" fill="#0DE5A8"/>
</svg>
