<svg width="28" height="28" viewBox="0 0 28 28" fill="none" xmlns="http://www.w3.org/2000/svg">
<path fill-rule="evenodd" clip-rule="evenodd" d="M0 14C0 6.26801 6.26801 0 14 0C21.732 0 28 6.26801 28 14V28H14C6.26801 28 0 21.732 0 14ZM11.1589 21.1498C11.1589 19.5903 13.9823 15.5031 13.9823 15.5031C13.9823 15.5031 16.8057 19.5903 16.8057 21.1498C16.8057 22.7093 15.5413 23.9731 13.9823 23.9731C12.4233 23.9731 11.1589 22.7093 11.1589 21.1498ZM13.9823 12.478C13.9823 12.478 11.1589 8.39077 11.1589 6.83131C11.1589 5.27184 12.4233 4.00794 13.9823 4.00794C15.5413 4.00794 16.8057 5.27184 16.8057 6.83131C16.8057 8.39077 13.9823 12.478 13.9823 12.478ZM18.6046 20.0152C17.2541 19.2355 15.1261 14.7467 15.1261 14.7467C15.1261 14.7467 20.0774 14.3453 21.428 15.125C22.7785 15.9047 23.2409 17.6316 22.4614 18.9818C21.6819 20.3319 19.9552 20.7949 18.6046 20.0152ZM12.8385 13.4611C12.8385 13.4611 7.88713 13.8626 6.53659 13.0828C5.18605 12.3031 4.72366 10.5762 5.50317 9.22604C6.28268 7.87589 8.00942 7.41289 9.35996 8.19262C10.7105 8.97235 12.8385 13.4611 12.8385 13.4611ZM21.4914 13.0206C20.1408 13.8004 15.1895 13.3989 15.1895 13.3989C15.1895 13.3989 17.3175 8.91016 18.668 8.13043C20.0185 7.3507 21.7453 7.8137 22.5248 9.16385C23.3043 10.514 22.8419 12.2409 21.4914 13.0206ZM12.9018 14.6845C12.9018 14.6845 10.7738 19.1733 9.42329 19.953C8.07275 20.7327 6.34601 20.2697 5.5665 18.9196C4.78698 17.5694 5.24938 15.8425 6.59992 15.0628C7.95046 14.2831 12.9018 14.6845 12.9018 14.6845Z" fill="#0DE5A8"/>
</svg>
