<svg width="400" height="164" viewBox="0 0 400 164" fill="none" xmlns="http://www.w3.org/2000/svg">
<path d="M142.375 103.808L146.36 94.5525C150.667 97.7664 156.388 99.4376 162.044 99.4376C166.222 99.4376 168.857 97.8306 168.857 95.3881C168.793 88.5746 143.853 93.9097 143.661 76.8118C143.596 68.1343 151.31 61.4495 162.237 61.4495C168.729 61.4495 175.221 63.0564 179.849 66.7202L176.121 76.1691C171.878 73.4694 166.608 71.5411 161.594 71.5411C158.187 71.5411 155.938 73.148 155.938 75.2049C156.002 81.8898 181.134 78.2259 181.392 94.5525C181.392 103.423 173.871 109.658 163.072 109.658C155.166 109.658 147.903 107.794 142.375 103.808Z" fill="#9CA0A4"/>
<path d="M295.292 91.21C293.299 94.681 289.571 97.0593 285.264 97.0593C278.901 97.0593 273.759 91.9171 273.759 85.5536C273.759 79.1901 278.901 74.0479 285.264 74.0479C289.571 74.0479 293.299 76.4262 295.292 79.8972L306.283 73.7908C302.169 66.4631 294.263 61.4495 285.264 61.4495C271.959 61.4495 261.16 72.2481 261.16 85.5536C261.16 98.8591 271.959 109.658 285.264 109.658C294.327 109.658 302.169 104.708 306.283 97.3164L295.292 91.21Z" fill="#9CA0A4"/>
<path d="M200.675 41.4591H186.919V108.758H200.675V41.4591Z" fill="#9CA0A4"/>
<path d="M311.682 41.4591V108.758H325.438V88.5746L341.764 108.758H359.376L338.615 84.7823L357.834 62.4136H340.993L325.438 80.9899V41.4591H311.682Z" fill="#9CA0A4"/>
<path d="M241.556 91.3386C239.563 94.6168 235.449 97.0593 230.821 97.0593C224.458 97.0593 219.315 91.9171 219.315 85.5536C219.315 79.1901 224.458 74.0479 230.821 74.0479C235.449 74.0479 239.563 76.619 241.556 79.9614V91.3386ZM241.556 62.4136V67.8772C239.306 64.0848 233.714 61.4495 227.864 61.4495C215.78 61.4495 206.267 72.1196 206.267 85.4893C206.267 98.8591 215.78 109.658 227.864 109.658C233.714 109.658 239.306 107.022 241.556 103.23V108.694H255.311V62.4136H241.556Z" fill="#9CA0A4"/>
<path d="M57.3355 91.2742C57.3355 95.9665 53.5431 99.7588 48.8509 99.7588C44.1586 99.7588 40.3662 95.9665 40.3662 91.2742C40.3662 86.5819 44.1586 82.7896 48.8509 82.7896H57.3355V91.2742Z" fill="#9CA0A4"/>
<path d="M61.5779 91.2742C61.5779 86.5819 65.3703 82.7896 70.0625 82.7896C74.7548 82.7896 78.5472 86.5819 78.5472 91.2742V112.486C78.5472 117.178 74.7548 120.97 70.0625 120.97C65.3703 120.97 61.5779 117.178 61.5779 112.486V91.2742Z" fill="#9CA0A4"/>
<path d="M70.0625 57.2071C65.3703 57.2071 61.5779 53.4147 61.5779 48.7225C61.5779 44.0302 65.3703 40.2378 70.0625 40.2378C74.7548 40.2378 78.5472 44.0302 78.5472 48.7225V57.2071H70.0625Z" fill="#9CA0A4"/>
<path d="M70.0626 61.5137C74.7548 61.5137 78.5472 65.3061 78.5472 69.9983C78.5472 74.6906 74.7548 78.483 70.0626 78.483H48.7867C44.0944 78.483 40.302 74.6906 40.302 69.9983C40.302 65.3061 44.0944 61.5137 48.7867 61.5137H70.0626Z" fill="#9CA0A4"/>
<path d="M104.065 69.9983C104.065 65.3061 107.858 61.5137 112.55 61.5137C117.242 61.5137 121.035 65.3061 121.035 69.9983C121.035 74.6906 117.242 78.483 112.55 78.483H104.065V69.9983Z" fill="#9CA0A4"/>
<path d="M99.8231 69.9984C99.8231 74.6906 96.0307 78.483 91.3384 78.483C86.6461 78.483 82.8538 74.6906 82.8538 69.9984V48.7224C82.8538 44.0302 86.6461 40.2378 91.3384 40.2378C96.0307 40.2378 99.8231 44.0302 99.8231 48.7224V69.9984Z" fill="#9CA0A4"/>
<path d="M91.3384 104.001C96.0307 104.001 99.8231 107.794 99.8231 112.486C99.8231 117.178 96.0307 120.97 91.3384 120.97C86.6461 120.97 82.8538 117.178 82.8538 112.486V104.001H91.3384Z" fill="#9CA0A4"/>
<path d="M91.3384 99.7588C86.6461 99.7588 82.8538 95.9665 82.8538 91.2742C82.8538 86.5819 86.6461 82.7896 91.3384 82.7896H112.614C117.307 82.7896 121.099 86.5819 121.099 91.2742C121.099 95.9665 117.307 99.7588 112.614 99.7588H91.3384Z" fill="#9CA0A4"/>
</svg>
